<?xml version="1.0" encoding="utf-8"?>
<!-- Generator: Adobe Illustrator 24.0.1, SVG Export Plug-In . SVG Version: 6.00 Build 0)  -->
<svg version="1.2" baseProfile="tiny" xmlns="http://www.w3.org/2000/svg" xmlns:xlink="http://www.w3.org/1999/xlink" x="0px"
	 y="0px" viewBox="0 0 1136.3 663.9" xml:space="preserve">
<g id="Warstwa_1">
	<g>
		<path d="M846.1,205.5c9.9,3.1,15.4,8.5,19.9,17.1C862,223.4,848.4,209.8,846.1,205.5 M922,309.7c-0.2-3.4-1.5-26.7-32.2-25.9
			c-30.7,0.8-32.8-28.4-32.8-28.4s7.6-8.3,13.9-2.3c0.5-1.6,2.2-1.1,1.6-5c2.8,2.7,3.9,4.9,2.8,8.2c3.8-0.6,6-1.7,7-5
			c17.5,7.4,18.3,16.6,13.5,26c3.8-0.6,6-1.7,8.6-4.5c0.6,3.8-0.4,7.1-1.4,10.4c7.5-6.7,21.4-22.2,12-37.8
			c-5.5,0.1-10.9,0.2-14.8-4.7c-5.5-5.4-11.1-10.7-19.3-13.3c-4.1-15.7-15.1-26.5-33.2-32.2c-10.7-17.8-18.1-40.1-17.5-70.6
			c-6.6,21-7.5,40.4-1.5,60.1c-0.1,0.2-0.2,0.3-0.2,0.5c-13.6-13.3-24.5-29.4-29.2-54.1c-0.8,19.6,2.2,38.7,11.2,56
			c-10.4-1.5-17.5-7.4-22.6-14.4c0.3,7.7,0.9,16.2,2.2,24.3c-7.4-3.6-13.1-10.2-15.4-18.2l23.9-113.9c0,0,0,0-0.1,0
			c0-0.1,0.1-0.2,0.1-0.2c0-0.8-0.6-1.4-1.4-1.4c-0.6,0-1.1,0.4-1.3,0.9c0,0,0,0,0,0c-11.4,33.9-31,77.4-57.1,77.4
			c0,0-27,3.3-45.5-48.6h0c-0.1-2.1-1.6-4-3.8-4.4c-2.4-0.5-4.7,1-5.4,3.3c-8.5,11.5-25.1,30.3-42.8,30.3c0,0-39,12.2-62.2-116.4
			c0,0,0,0,0,0c-0.3-3.1-2.8-5.5-6-5.5c-3.2,0-5.7,2.4-6,5.5l0,0c-23.2,128.7-62.2,116.4-62.2,116.4c-17.8,0-34.5-19.1-43-30.5
			c-0.5-1.5-1.8-2.7-3.5-3c-2.5-0.5-5,1.2-5.5,3.7c-0.1,0.3-0.1,0.7-0.1,1c-18.5,51.7-45.4,48.4-45.4,48.4
			c-26.1,0-45.8-43.6-57.1-77.6l0,0c-0.2-0.5-0.7-0.9-1.3-0.9c-0.8,0-1.4,0.6-1.4,1.4c0,0.1,0,0.2,0.1,0.3c0,0-0.1,0-0.1,0
			l44.5,211.7c-0.6,24.1-14.8,27.6-53.8,12.8c-45.8-17.6-92.5-11.5-112.8,6.6c-1.5-7.1,0.8-10.1,2.9-13.3
			c-9,7.2-11.2,15.4-14.4,25.5c-1.9,6.2-25.4,24.1-30.9,28.4c13.1-1.8,44.7-22.7,57.4-27.6c13.7-5,28.2-4.8,41.6-0.4
			c-9.3-7.3-20.9-10.3-33.4-11.7c8.2-1.6,17.8-3,26.7-2.9c10.9,0.2,22,2.5,29.5,9.6c22.4,21.2,38.2,26.3,58,31.5
			c-15.4-8.8-27.1-18.4-32.9-29.7c7.9,1.4,16.4,5.3,23.8,9.6c28.5,16.7,33.4,21.3,50.8,21.5v0h0.3c1.1,0,2.2,0,3.4,0h145.7l5.4-3.8
			c0,0,0-10.5-10.1-13.9c0,0-31.5,11.2-28.1-6.8l0.7-7.5l-6-4.5c0,0-1.1-6.8,1.5-6.8c0,0-7.5-2.6-6-7.1c0,0,2.4-2.8,2.4-5.8
			c0,0-11.7-1-11.5-6.8c0,0-0.8-3.8,3-5.8c0,0,8.8-9,10.3-13.5l-1.3-4.8l-1.3-0.2l0.8-1.9l-0.9-2.4c0,0-7.5-9.7-5.6-19.5
			c0,0-9.7,1.5-12.4-6.4c0,0,7.5,0.4,9-4.5c0,0-3.4-9.4-3.4-11.6c0-2.3,13.5-6.8,12.4-7.9c-1.1-1.1,9.4-5.6,10.5-8.2
			c1.1-2.6,3.8-9.7,7.1-11.2c3.4-1.5,8.6-3.8,13.9-3.8s9-0.7,13.1,0c4.1,0.8,12.4,0.8,15-0.3c2.6-1.2,8.9-1.8,14,0
			c5.1,1.8,12.2,4.1,13.7,5.2c1.5,1.1,3,3.4,6.8,4.9c3.8,1.5,6.8,0.8,10.1,2.3c3.4,1.5,7.9,3.8,10.5,6c2.6,2.3,3.4,4.1,4.5,7.1
			c1.1,3,1.9,9,3.8,10.7s3.4,1.7,5.3,4.7c1.9,3,2.3,3.4,2.6,6.4c0.4,3-1.5,3.7,0,6.7c1.5,3,3,7.5,4.5,11.3c1.5,3.7,3.4,3.4,2.6,8.2
			c-0.8,4.9-2.3,8.3-5.3,12c-3,3.8-5.6,6.4-7.1,7.9c-1.5,1.5-3,1.9-3.4,3.8c-0.4,1.9,0.8,1.9-1.9,5.3c-2.6,3.4-4.1,3.4-6,6.4
			c-1.9,3-3,4.1-3,7.5c0,3.4-0.4,4.1,0,6.4c0.4,2.2-3.4,3.7-3.4,3.7l-4.1-3.4l-2.2,0.4c0,0-3,27.8,15,41.3h111.8l15.5-73.8
			c5.1-14.3,17.9-24.6,34-24.6c16.3,0,30.5,10.5,35.5,25c9.9,28,5.1,53.6,4.8,57.2c-0.8,8.1,5,16.2,13.2,16.2
			c14.2,0.1,17.8-14.5,18.1-17.9c7.6-1.2,18-9.7,21.1-19.5c-3.7,4.3-4.4,4.9-7.7,5.6c1.5-2.7,1.2-4.1,0-10.1
			c-2.4,4.5-7.8,9.4-14.5,4.1c-10.8-7.7-13.6-20.4-10.5-30.3c1,4.5,7.1,25.2,34.3,22c30.5-3.6,34,19.4,34.5,22.8
			c0,0,7.3,29,36.1,22.5C926.6,339.3,922,309.7,922,309.7"/>
		<g>
			<path d="M26.9,514.6h1v1.7H0v-1.7h1c1,0,2-0.3,2.7-1c0.8-0.7,1.5-1.5,2.1-2.4c0.6-0.9,1-1.9,1.3-3c0.3-1.1,0.4-2.1,0.4-3v-91.4
				c0-0.8-0.1-1.7-0.4-2.7c-0.3-1-0.7-2-1.3-2.9c-0.6-0.9-1.3-1.7-2.1-2.3c-0.8-0.6-1.6-0.9-2.5-0.9h-1v-1.7h27.9v1.7h-1
				c-1,0-1.9,0.3-2.7,0.9c-0.8,0.6-1.5,1.4-2,2.3c-0.6,0.9-1,1.9-1.4,2.9c-0.3,1-0.5,1.9-0.5,2.7v39.8l49.6-43.2
				c0.8-0.8,1.2-1.7,1.2-2.7c0-1.8-0.8-2.7-2.3-2.7h-1v-1.7h23.8v1.7h-1c-1.8,0-3.7,0.6-5.6,1.7c-2,1.1-3.9,2.6-5.9,4.3l-41,35.8
				l43.1,57.4c0.1,0.2,0.7,0.9,1.8,2c1,1.1,2.3,2.3,3.8,3.6c1.5,1.3,3.2,2.4,5.1,3.3c1.9,1,3.8,1.5,5.8,1.5v1.7h-4.7
				c-3.9,0-7.2-0.2-9.9-0.6c-2.7-0.4-5-1.1-6.9-2c-1.9-0.9-3.7-2-5.2-3.4c-1.5-1.4-3-3.1-4.6-5.1l-37.8-50.2l-8.2,7.4v42.8
				c0,0.9,0.2,1.9,0.5,2.9c0.3,1,0.8,2,1.3,3c0.5,1,1.2,1.8,1.9,2.5C25,514.2,25.9,514.6,26.9,514.6"/>
			<path d="M134.6,409v43.5h1c1,0.1,2.7,0.2,5,0.3c2.3,0.1,5.1,0.1,8.5,0.1c2.7,0,5.6-0.4,8.7-1.1c3.1-0.7,5.9-2,8.6-3.8
				c2.7-1.8,4.9-4.1,6.6-6.9c1.8-2.9,2.6-6.5,2.6-10.8c0-4.3-0.9-7.9-2.8-10.6c-1.9-2.7-4.5-4.9-7.8-6.5c-3.3-1.6-7.3-2.7-12-3.3
				c-4.7-0.6-9.8-0.9-15.4-0.9H134.6z M140.9,514.6h1v1.7h-27.5v-1.7h1c0.9,0,1.8-0.3,2.5-1c0.8-0.7,1.5-1.5,2.1-2.4
				c0.6-0.9,1-1.9,1.3-3c0.3-1.1,0.4-2.1,0.4-3v-91.4c0-0.8-0.1-1.7-0.4-2.7s-0.7-2-1.3-2.9c-0.6-0.9-1.3-1.7-2.1-2.3
				c-0.8-0.6-1.6-0.9-2.5-0.9h-1v-1.7h34c13,0,23.1,2.2,30.1,6.7c7.1,4.5,10.6,11,10.6,19.7c0,4.3-0.8,8.1-2.4,11.4
				c-1.6,3.3-3.8,6-6.5,8.4c-2.7,2.3-6,4.2-9.7,5.7c-3.7,1.4-7.6,2.5-11.8,3.2l14.1,18.9c3.4,4.6,6.8,9.1,10.3,13.5
				c3.5,4.4,7,8.9,10.3,13.6c0.9,1.1,1.9,2.3,3,3.6c1.1,1.3,2.3,2.4,3.5,3.4c1.2,1,2.5,1.9,3.9,2.5c1.4,0.6,2.8,0.9,4.2,0.9v1.7
				h-8.4c-5.2,0-9.5-1.1-12.8-3.3c-3.3-2.2-6.1-4.8-8.3-7.8c-5.9-7.5-11.7-15.2-17.5-23c-5.8-7.8-11.5-15.4-17.3-23
				c-1.4-0.1-3-0.2-4.6-0.4c-1.6-0.2-3.2-0.4-4.6-0.6v47c0,0.9,0.1,1.9,0.4,3c0.3,1.1,0.7,2.1,1.3,3c0.6,0.9,1.2,1.7,1.9,2.4
				C138.9,514.2,139.8,514.6,140.9,514.6"/>
			<path d="M272.6,398.3l27.7-18.3l5.1,7.7l-32.2,11.7L272.6,398.3z M289.3,512c8.7-0.3,16.4-2.1,23-5.2c6.6-3.1,12.1-7.1,16.5-12
				c4.4-4.9,7.7-10.2,9.9-16c2.2-5.8,3.2-11.6,3.2-17.3c0-6.3-1.3-12.6-3.9-19c-2.6-6.4-6.3-12.2-11.1-17.4
				c-4.8-5.2-10.6-9.4-17.3-12.7c-6.7-3.3-14.2-4.9-22.6-4.9c-8.1,0-15.3,1.6-21.7,4.7c-6.4,3.1-11.8,7.2-16.3,12.1
				c-4.5,4.9-7.9,10.4-10.3,16.4c-2.4,6.1-3.5,12-3.5,17.8c0,6.3,1.4,12.6,4.1,18.9c2.7,6.3,6.5,12.1,11.3,17.2
				c4.8,5.1,10.5,9.3,17.1,12.5C274.2,510.4,281.4,512,289.3,512 M289.4,401.4c10.1,0,19.3,1.6,27.3,4.7c8.1,3.1,14.9,7.4,20.6,12.7
				c5.6,5.3,10,11.5,13.1,18.5c3.1,7,4.6,14.4,4.6,22c0,8.6-1.8,16.5-5.4,23.7c-3.6,7.2-8.5,13.4-14.7,18.5
				c-6.2,5.1-13.5,9.2-21.7,12.1c-8.3,2.9-17.1,4.4-26.4,4.4c-10,0-19-1.6-27-4.8c-8-3.2-14.8-7.4-20.3-12.7
				c-5.5-5.3-9.8-11.3-12.8-18.2c-3-6.9-4.5-14-4.5-21.4c0-7.3,1.5-14.5,4.5-21.7c3-7.1,7.4-13.5,13.2-19.1
				c5.8-5.6,12.8-10.1,21.2-13.5C269.2,403.1,278.7,401.4,289.4,401.4"/>
			<path d="M376,514.6h1c1,0,1.9-0.3,2.7-0.9c0.8-0.6,1.5-1.4,2-2.3c0.6-0.9,1-1.9,1.4-2.9c0.3-1,0.5-2,0.5-2.9v-91.7
				c0-0.8-0.2-1.7-0.5-2.7c-0.3-1-0.8-2-1.4-2.9c-0.6-0.9-1.3-1.7-2-2.3c-0.8-0.6-1.7-0.9-2.7-0.9h-1v-1.7h28.1v1.7h-1
				c-1,0-1.9,0.3-2.7,0.9c-0.8,0.6-1.4,1.4-1.9,2.3c-0.5,0.9-0.9,1.9-1.3,2.9c-0.3,1-0.5,1.9-0.5,2.7v96.2h42.7
				c2.5,0,4.6-0.5,6.4-1.5c1.8-1,3.3-2.3,4.6-3.9c1.2-1.5,2.1-3.2,2.7-5c0.6-1.8,0.9-3.4,0.9-4.9h2v21.6h-80V514.6z"/>
			<path d="M526,403.1h27.7v1.7h-1c-0.9,0-1.8,0.3-2.5,0.9c-0.8,0.6-1.4,1.4-2,2.2c-0.5,0.9-0.9,1.8-1.3,2.9c-0.3,1.1-0.5,2-0.5,2.8
				v91.4c0,0.9,0.1,1.9,0.4,3c0.2,1.1,0.7,2.1,1.3,3c0.6,0.9,1.2,1.7,1.9,2.4c0.7,0.7,1.6,1,2.6,1h1v1.7H526v-1.7h1
				c1,0,2-0.3,2.7-0.9c0.8-0.6,1.5-1.4,2.1-2.4c0.6-1,1-2,1.3-3.1c0.3-1.1,0.4-2.1,0.4-3v-91.4c0-0.8-0.1-1.7-0.4-2.7
				c-0.3-1-0.7-2-1.3-2.9c-0.6-0.9-1.3-1.7-2.1-2.3c-0.8-0.6-1.7-0.9-2.7-0.9h-1V403.1z"/>
			<path d="M710.2,485.9c0,5.7-1.3,10.6-3.9,14.7c-2.6,4.1-6,7.3-10.1,9.9c-4.1,2.5-8.7,4.3-13.9,5.5c-5.1,1.1-10.3,1.7-15.4,1.7
				c-5.2,0-9.7-0.5-13.5-1.4c-3.8-0.9-7.2-1.8-10.4-2.6c-2.1-0.6-4-1-5.7-1.4c-1.7-0.4-3.4-0.6-5.1-0.6v-19.5h1.9
				c0,4.3,1.3,7.8,3.8,10.4c2.5,2.6,5.5,4.5,8.9,5.9c3.4,1.4,6.8,2.3,10.2,2.7c3.4,0.4,5.9,0.6,7.4,0.6c5.6,0,10.5-0.7,14.5-2.1
				c4-1.4,7.4-3.3,10-5.7c2.6-2.3,4.5-4.9,5.8-7.8c1.2-2.8,1.9-5.8,1.9-8.7c0-3.8-0.9-6.9-2.7-9.5c-1.8-2.6-4.2-4.8-7.1-6.8
				c-2.9-1.9-6.3-3.6-10-5c-3.8-1.4-7.6-2.7-11.5-4.1c-4.4-1.5-8.8-3-13.1-4.6c-4.3-1.6-8.1-3.6-11.5-5.9c-3.4-2.3-6.1-5.1-8.2-8.4
				c-2.1-3.3-3.1-7.3-3.1-12.1c0-5,1.1-9.4,3.3-13.1c2.2-3.7,5.2-6.8,8.9-9.2c3.7-2.4,7.9-4.2,12.7-5.4c4.7-1.2,9.6-1.8,14.5-1.8
				c3.4,0,6.6,0.2,9.6,0.6c3,0.4,5.9,0.9,8.6,1.4c2.2,0.5,4.4,0.8,6.4,1.1c2.1,0.3,4.1,0.4,6,0.4v17.7h-2c-0.3-5.9-2.9-10-8-12.1
				c-5.1-2.1-12.1-3.2-21.2-3.2c-5.2,0-9.5,0.8-12.8,2.3c-3.3,1.5-6,3.4-7.9,5.6c-1.9,2.2-3.3,4.6-4,7.2c-0.7,2.6-1.1,4.8-1.1,6.8
				c0,3.2,0.8,5.9,2.4,8.2c1.6,2.3,3.8,4.3,6.6,6c2.7,1.7,5.9,3.3,9.5,4.6c3.6,1.4,7.3,2.7,11.2,3.9c4.4,1.5,8.9,3.1,13.5,4.8
				c4.5,1.7,8.6,3.8,12.2,6.3c3.6,2.5,6.5,5.6,8.8,9.3C709.1,476.2,710.2,480.7,710.2,485.9"/>
			<path d="M835.7,514.6h1c0.9,0,1.7-0.3,2.5-1c0.8-0.7,1.5-1.5,2-2.4c0.6-0.9,1-1.9,1.3-3c0.3-1.1,0.4-2.1,0.4-3V415l-50.4,103.2
				l-47.8-97.9v84.8c0,0.9,0.1,1.9,0.4,3c0.3,1.1,0.7,2.1,1.3,3c0.6,0.9,1.3,1.7,2,2.4c0.8,0.7,1.7,1,2.7,1h1v1.7h-21.3v-1.7h1
				c0.9,0,1.8-0.3,2.5-1c0.8-0.7,1.4-1.5,2-2.4c0.5-0.9,0.9-1.9,1.2-3c0.3-1.1,0.4-2.1,0.4-3v-91.4c0-0.8-0.1-1.7-0.4-2.7
				s-0.7-2-1.2-2.9c-0.5-0.9-1.2-1.7-2-2.3c-0.8-0.6-1.6-0.9-2.5-0.9h-1v-1.7h19.9l45.3,93.8l45.3-93.8h22v1.7h-1
				c-1,0-1.9,0.3-2.7,0.9c-0.8,0.6-1.5,1.4-2,2.3c-0.6,0.9-1,1.9-1.3,2.9c-0.3,1-0.4,1.9-0.4,2.7v91.4c0,0.9,0.1,1.9,0.4,3
				c0.2,1.1,0.7,2.1,1.3,3c0.6,0.9,1.3,1.7,2,2.4c0.8,0.7,1.7,1,2.7,1h1v1.7h-27.7V514.6z"/>
			<path d="M951.9,512c8.7-0.3,16.4-2.1,23-5.2c6.6-3.1,12.1-7.1,16.5-12c4.4-4.9,7.7-10.2,9.9-16c2.1-5.8,3.2-11.6,3.2-17.3
				c0-6.3-1.3-12.6-3.9-19c-2.6-6.4-6.3-12.2-11.1-17.4c-4.8-5.2-10.6-9.4-17.3-12.7c-6.7-3.3-14.2-4.9-22.6-4.9
				c-8.1,0-15.3,1.6-21.7,4.7c-6.4,3.2-11.8,7.2-16.3,12.1c-4.5,4.9-7.9,10.4-10.3,16.5c-2.3,6-3.5,12-3.5,17.8
				c0,6.3,1.4,12.6,4.1,18.9c2.7,6.3,6.5,12.1,11.3,17.2c4.8,5.1,10.5,9.3,17.1,12.5C936.8,510.4,944,512,951.9,512 M952,401.4
				c10.1,0,19.2,1.6,27.3,4.7s14.9,7.4,20.6,12.7c5.6,5.3,10,11.5,13.1,18.5c3.1,7,4.6,14.4,4.6,22c0,8.6-1.8,16.4-5.4,23.7
				c-3.6,7.2-8.5,13.4-14.7,18.5c-6.2,5.1-13.5,9.2-21.8,12.1c-8.2,2.9-17.1,4.4-26.4,4.4c-10,0-19-1.6-27-4.8
				c-8-3.2-14.8-7.4-20.3-12.7c-5.5-5.3-9.8-11.3-12.8-18.2s-4.5-14-4.5-21.4c0-7.3,1.5-14.5,4.5-21.7c3-7.1,7.4-13.5,13.2-19.1
				s12.8-10.1,21.2-13.5C931.8,403.1,941.3,401.4,952,401.4"/>
			<path d="M1065.5,514.6h1v1.7h-27.9v-1.7h1c1,0,2-0.3,2.7-1c0.8-0.7,1.5-1.5,2-2.4c0.6-0.9,1-1.9,1.3-3c0.3-1.1,0.4-2.1,0.4-3
				v-91.4c0-0.8-0.1-1.7-0.4-2.7s-0.7-2-1.3-2.9c-0.6-0.9-1.3-1.7-2-2.3c-0.8-0.6-1.6-0.9-2.5-0.9h-1v-1.7h27.9v1.7h-1
				c-1,0-1.9,0.3-2.7,0.9c-0.8,0.6-1.4,1.4-2,2.3c-0.6,0.9-1.1,1.9-1.4,2.9c-0.3,1-0.5,1.9-0.5,2.7v39.8l49.6-43.2
				c0.8-0.8,1.2-1.7,1.2-2.7c0-1.8-0.8-2.7-2.3-2.7h-1v-1.7h23.8v1.7h-1c-1.8,0-3.7,0.6-5.6,1.7c-2,1.1-3.9,2.6-5.9,4.3l-41,35.8
				l43.1,57.4c0.1,0.2,0.7,0.9,1.7,2c1.1,1.1,2.3,2.3,3.8,3.6c1.5,1.3,3.2,2.4,5.1,3.3c1.9,1,3.8,1.5,5.8,1.5v1.7h-4.7
				c-3.9,0-7.2-0.2-9.8-0.6c-2.7-0.4-5-1.1-6.9-2c-1.9-0.9-3.7-2-5.2-3.4c-1.5-1.4-3-3.1-4.6-5.1l-37.9-50.2l-8.2,7.4v42.8
				c0,0.9,0.2,1.9,0.5,2.9c0.3,1,0.8,2,1.3,3c0.5,1,1.2,1.8,2,2.5C1063.5,514.2,1064.5,514.6,1065.5,514.6"/>
			<path d="M245,602.4c-1.2,0-2.1,0.3-2.7,1c-0.6,0.7-1.2,1.6-1.7,3l-15,37.5l-12.8-31.3l-12.7,31.2l-14.7-36.3
				c-0.5-1.1-1-2.2-1.7-3.4c-0.7-1.1-1.6-1.7-2.7-1.7v-1h13.6v1c-0.5,0-1,0.2-1.7,0.6c-0.7,0.4-1,1.1-1,2.1c0,0.1,0,0.4,0.1,0.8
				c0.1,0.4,0.2,0.8,0.3,1.1l9.7,24l12.5-30.8l12.6,30.8l9.8-24.4c0.3-1,0.5-1.7,0.5-2.1c0-0.5-0.2-1-0.5-1.5
				c-0.3-0.5-0.9-0.7-1.7-0.8v-1h9.8V602.4z"/>
			<path d="M317.8,602.4c-1.2,0-2.1,0.3-2.7,1c-0.6,0.7-1.2,1.6-1.7,3l-15,37.5l-12.8-31.3l-12.7,31.2l-14.7-36.3
				c-0.5-1.1-1-2.2-1.7-3.4c-0.7-1.1-1.6-1.7-2.7-1.7v-1h13.6v1c-0.5,0-1,0.2-1.7,0.6c-0.7,0.4-1,1.1-1,2.1c0,0.1,0,0.4,0.1,0.8
				c0.1,0.4,0.2,0.8,0.4,1.1l9.7,24l12.5-30.8l12.6,30.8l9.8-24.4c0.3-1,0.5-1.7,0.5-2.1c0-0.5-0.2-1-0.5-1.5
				c-0.3-0.5-0.9-0.7-1.7-0.8v-1h9.8V602.4z"/>
			<path d="M390.6,602.4c-1.2,0-2.1,0.3-2.7,1c-0.6,0.7-1.2,1.6-1.7,3l-15,37.5l-12.8-31.3l-12.7,31.2L331,607.4
				c-0.5-1.1-1-2.2-1.7-3.4c-0.7-1.1-1.6-1.7-2.7-1.7v-1h13.6v1c-0.5,0-1,0.2-1.7,0.6c-0.7,0.4-1,1.1-1,2.1c0,0.1,0,0.4,0.1,0.8
				c0.1,0.4,0.2,0.8,0.3,1.1l9.7,24l12.5-30.8l12.6,30.8l9.8-24.4c0.3-1,0.5-1.7,0.5-2.1c0-0.5-0.2-1-0.5-1.5
				c-0.3-0.5-0.9-0.7-1.7-0.8v-1h9.8V602.4z"/>
			<path d="M389,638.8c0-1.3,0.4-2.5,1.3-3.4c0.9-0.9,2-1.4,3.3-1.4s2.4,0.5,3.4,1.4c0.9,0.9,1.4,2.1,1.4,3.4c0,1.3-0.5,2.4-1.4,3.3
				c-0.9,0.9-2,1.3-3.4,1.3s-2.4-0.4-3.3-1.3C389.5,641.2,389,640.1,389,638.8"/>
			<path d="M447.2,643c-1.1,0-2.2-0.2-3.1-0.7c-1-0.5-1.8-1-2.5-1.6c-0.9-0.7-1.7-1.5-2.4-2.4l-12.8-16.5l-2.1,2.1v12.9
				c0,0.5,0.1,1,0.2,1.6c0.1,0.6,0.4,1.2,0.6,1.7c0.3,0.6,0.6,1,1,1.4c0.4,0.4,0.9,0.5,1.4,0.5v1h-12.9v-1c0.5,0,0.9-0.2,1.3-0.5
				c0.4-0.4,0.7-0.8,1-1.3c0.3-0.5,0.5-1.1,0.6-1.7c0.1-0.6,0.2-1.2,0.2-1.7v-50.5c0-0.9-0.3-1.8-0.9-2.8c-0.6-0.9-1.4-1.4-2.4-1.5
				v-1l9.8-3.1v41.4l16.1-15.1c0.3-0.3,0.5-0.7,0.5-1.2s-0.2-0.7-0.7-0.7v-1h8.9v1c-0.4,0-0.8,0.1-1.2,0.3c-0.4,0.2-0.8,0.4-1.2,0.7
				c-0.5,0.3-0.9,0.6-1.4,1l-14.1,13.1l14.7,18.5c0.9,1.2,1.7,2.2,2.6,3.1c0.7,0.7,1.5,1.4,2.3,2c0.8,0.6,1.5,0.9,2.1,0.9v1H447.2z"
				/>
			<path d="M490,608.6c-0.8-1.3-1.6-2.1-2.5-2.5c-0.9-0.3-1.9-0.5-3-0.5c-0.7,0-1.5,0.2-2.3,0.5c-0.8,0.3-1.6,0.8-2.4,1.3
				c-0.8,0.5-1.6,1.1-2.3,1.7c-0.8,0.6-1.4,1.2-1.9,1.7v25.8c0,0.5,0.1,1.1,0.2,1.7c0.1,0.6,0.3,1.2,0.6,1.7c0.3,0.6,0.6,1,1,1.4
				c0.4,0.4,0.8,0.5,1.3,0.5v1h-12.9v-1c0.5,0,0.9-0.2,1.3-0.5c0.4-0.4,0.7-0.8,1-1.4c0.3-0.6,0.5-1.1,0.6-1.7
				c0.1-0.6,0.2-1.2,0.2-1.7V609c0-0.9-0.3-1.8-0.9-2.8c-0.6-0.9-1.5-1.5-2.6-1.8v-0.8l10-3v5.9c0.6-0.7,1.2-1.4,1.9-2.1
				c0.7-0.7,1.4-1.3,2.2-1.9c0.8-0.6,1.7-1,2.7-1.4c1-0.4,2.1-0.5,3.5-0.5c0.9,0,2.1,0.2,3.6,0.6c1.5,0.4,2.6,0.8,3.6,1.3L490,608.6
				z"/>
			<path d="M525.3,604c-2.4,0.1-4.5,0.7-6.3,1.7c-1.8,1-3.3,2.3-4.5,4c-1.2,1.6-2.1,3.5-2.8,5.5c-0.6,2.1-0.9,4.1-0.9,6.3
				c0,2.5,0.4,4.8,1.1,7.1c0.7,2.3,1.8,4.3,3.3,6.1c1.4,1.8,3.1,3.2,5.1,4.3c2,1.1,4.2,1.6,6.6,1.6s4.6-0.5,6.5-1.6
				c1.9-1.1,3.4-2.4,4.7-4.1c1.2-1.7,2.2-3.6,2.8-5.7c0.6-2.1,0.9-4.2,0.9-6.3c0-2.2-0.3-4.4-1-6.6c-0.7-2.2-1.7-4.2-3.1-6.1
				c-1.4-1.8-3.1-3.3-5.2-4.4C530.5,604.5,528.1,604,525.3,604 M526,643.7c-3.3,0-6.3-0.5-8.9-1.6c-2.6-1.1-4.9-2.6-6.8-4.5
				c-1.9-1.9-3.3-4.1-4.4-6.7c-1-2.6-1.5-5.4-1.5-8.4c0-3.2,0.6-6.2,1.7-8.9c1.1-2.7,2.7-5,4.7-6.9c2-1.9,4.3-3.4,7-4.5
				s5.7-1.6,8.8-1.6c3.2,0,6.1,0.5,8.7,1.5c2.6,1,4.9,2.5,6.8,4.3c1.9,1.8,3.4,4,4.5,6.6c1.1,2.5,1.6,5.3,1.6,8.4
				c0,2.8-0.5,5.6-1.4,8.3c-1,2.7-2.4,5-4.3,7.1c-1.9,2-4.2,3.7-7,5C532.8,643.1,529.6,643.7,526,643.7"/>
			<path d="M563.3,643v-1c0.5,0,1-0.2,1.4-0.6c0.4-0.4,0.7-0.9,1-1.4c0.3-0.5,0.5-1.1,0.6-1.7c0.1-0.6,0.2-1.2,0.2-1.7v-50.8
				c0-1.1-0.2-2.2-0.5-3.2c-0.3-1-1.3-1.5-3-1.6v-1l10-3.1v59.6c0,0.5,0.1,1.1,0.2,1.7c0.1,0.6,0.3,1.2,0.6,1.7c0.3,0.5,0.6,1,1,1.4
				c0.4,0.4,0.8,0.6,1.3,0.6v1H563.3z"/>
			<path d="M593.7,590.7c0-1.3,0.5-2.4,1.3-3.4c0.9-0.9,2-1.4,3.3-1.4c1.3,0,2.4,0.5,3.4,1.4c0.9,0.9,1.4,2.1,1.4,3.4
				c0,1.3-0.5,2.4-1.4,3.3c-0.9,0.9-2.1,1.3-3.4,1.3c-1.3,0-2.4-0.4-3.3-1.3C594.1,593.1,593.7,592,593.7,590.7 M593.2,643v-1
				c0.5,0,1-0.2,1.4-0.6s0.7-0.9,1-1.4c0.3-0.5,0.5-1.1,0.6-1.7c0.1-0.6,0.2-1.2,0.2-1.7v-27.5c0-1.1-0.2-2.2-0.5-3.2
				s-1.3-1.6-2.9-1.6v-0.9l9.9-3.2v36.4c0,0.5,0.1,1.1,0.2,1.7c0.1,0.6,0.3,1.2,0.6,1.7c0.3,0.5,0.6,1,1,1.4s0.9,0.6,1.4,0.6v1
				H593.2z"/>
			<path d="M654.9,631.7c0,1.7-0.4,3.3-1.3,4.8c-0.9,1.5-2,2.7-3.5,3.8c-1.5,1.1-3.2,2-5.2,2.6c-2,0.6-4.1,0.9-6.4,0.9
				c-2.8,0-5.2-0.4-6.9-1.1c-1.8-0.8-3.3-1.5-4.6-2.3c-0.9-0.5-1.7-1-2.4-1.3c-0.7-0.4-1.5-0.5-2.4-0.5v-7.5h1
				c0.2,0.9,0.8,1.9,1.7,3c1,1.1,2.1,2.1,3.5,3c1.3,0.9,2.8,1.7,4.4,2.3c1.6,0.6,3.3,0.9,4.9,0.9c1.2,0,2.4-0.1,3.7-0.4
				c1.3-0.3,2.4-0.7,3.4-1.3c1-0.6,1.9-1.3,2.6-2.2c0.7-0.9,1-2,1-3.2c0-1.2-0.4-2.3-1.1-3.3c-0.7-0.9-1.6-1.7-2.8-2.4
				c-1.1-0.7-2.4-1.3-3.9-1.8c-1.5-0.5-2.9-1-4.4-1.5c-1.7-0.5-3.4-1.1-5.2-1.8c-1.8-0.7-3.3-1.4-4.7-2.3c-1.4-0.9-2.5-2-3.4-3.3
				c-0.9-1.3-1.3-2.8-1.3-4.6c0-1.5,0.3-3,0.8-4.4c0.6-1.4,1.5-2.6,2.8-3.6c1.3-1,2.9-1.9,5-2.5s4.5-0.9,7.4-0.9
				c2.6,0,4.6,0.2,6,0.6c1.4,0.4,2.6,0.9,3.5,1.3c0.6,0.3,1.2,0.6,1.8,0.7c0.6,0.2,1.2,0.2,2,0.2v6.9h-0.8c-1.2-2.2-3-3.8-5.5-5
				c-2.4-1.1-4.9-1.7-7.5-1.7c-1.7,0-3.1,0.2-4.3,0.6c-1.2,0.4-2.2,1-2.9,1.6c-0.8,0.6-1.3,1.3-1.7,2.1c-0.4,0.8-0.5,1.6-0.5,2.4
				c0,1.1,0.3,2.1,0.9,2.9c0.6,0.8,1.5,1.5,2.6,2.1c1.1,0.6,2.3,1.2,3.7,1.7c1.3,0.5,2.8,1,4.3,1.5c1.8,0.6,3.7,1.2,5.6,1.9
				c1.8,0.7,3.5,1.5,4.9,2.5c1.5,1,2.7,2.2,3.6,3.5C654.4,628.2,654.9,629.8,654.9,631.7"/>
			<path d="M732.8,636.6c0,0.5,0.1,1.1,0.2,1.7c0.1,0.6,0.3,1.2,0.6,1.7c0.3,0.5,0.6,1,0.9,1.4c0.4,0.4,0.8,0.6,1.3,0.6v1H723v-1
				c0.5,0,1-0.2,1.4-0.6c0.4-0.4,0.7-0.9,1-1.4c0.3-0.5,0.5-1.1,0.6-1.7c0.1-0.6,0.2-1.2,0.2-1.7v-21.4c0-1.5-0.2-3-0.6-4.4
				c-0.4-1.4-1.1-2.6-1.9-3.6c-0.9-1-1.9-1.8-3.2-2.5c-1.3-0.6-2.7-0.9-4.3-0.9c-1.8,0-3.3,0.4-4.6,1.2c-1.3,0.8-2.3,1.8-3.2,3
				s-1.4,2.4-1.8,3.6c-0.4,1.2-0.6,2.2-0.6,3v21.9c0,0.5,0.1,1.1,0.2,1.7c0.1,0.6,0.4,1.2,0.6,1.7c0.3,0.5,0.6,1,1,1.4
				c0.4,0.4,0.8,0.6,1.3,0.6v1h-12.8v-1c0.5,0,0.9-0.2,1.3-0.6c0.4-0.4,0.7-0.9,1-1.4c0.3-0.5,0.5-1.1,0.6-1.7
				c0.1-0.6,0.2-1.2,0.2-1.7v-22c0-1.6-0.3-3.1-0.9-4.4c-0.6-1.3-1.3-2.5-2.3-3.4c-1-0.9-2-1.6-3.3-2.2c-1.2-0.5-2.5-0.8-3.7-0.8
				c-1.7,0-3.2,0.3-4.5,1c-1.3,0.7-2.3,1.5-3.2,2.5c-0.8,1-1.5,2.1-1.9,3.2c-0.4,1.2-0.6,2.3-0.6,3.3v22.8c0,0.5,0.1,1.1,0.2,1.7
				c0.1,0.6,0.3,1.2,0.6,1.7c0.3,0.5,0.6,1,1,1.4c0.4,0.4,0.8,0.6,1.3,0.6v1h-12.8v-1c0.5,0,0.9-0.2,1.3-0.6c0.4-0.4,0.7-0.9,1-1.4
				c0.3-0.5,0.5-1.1,0.6-1.7c0.1-0.6,0.2-1.2,0.2-1.7v-26.5c0-0.5,0-1.1-0.1-1.8c-0.1-0.7-0.2-1.3-0.4-1.9c-0.2-0.6-0.5-1.1-1-1.5
				c-0.5-0.4-1.1-0.6-1.9-0.6v-0.9l9.8-3.3v5.1c1-1.1,2.4-2.2,4.1-3.3c1.7-1.1,4-1.6,6.9-1.6c1.8,0,3.5,0.3,5,0.8s2.7,1.2,3.8,2
				c1.1,0.8,2,1.8,2.8,2.8c0.8,1.1,1.5,2.1,2,3.1c0.5-1,1.2-2,1.9-3c0.7-1,1.6-2,2.6-2.8c1-0.9,2.3-1.6,3.7-2.1s3.1-0.8,5-0.8
				c3.7,0,6.6,0.7,8.7,2c2.1,1.3,3.7,2.9,4.7,4.8c1,1.9,1.7,3.8,1.9,5.8c0.3,2,0.4,3.7,0.4,5.1V636.6z"/>
			<path d="M772.1,604c-2.4,0.1-4.5,0.7-6.3,1.7c-1.8,1-3.3,2.3-4.5,4c-1.2,1.6-2.1,3.5-2.8,5.5c-0.6,2.1-0.9,4.1-0.9,6.3
				c0,2.5,0.4,4.8,1.1,7.1c0.8,2.3,1.8,4.3,3.3,6.1c1.4,1.8,3.1,3.2,5.1,4.3c2,1.1,4.2,1.6,6.6,1.6c2.4,0,4.6-0.5,6.5-1.6
				c1.9-1.1,3.4-2.4,4.7-4.1s2.2-3.6,2.8-5.7c0.6-2.1,0.9-4.2,0.9-6.3c0-2.2-0.3-4.4-1-6.6c-0.7-2.2-1.7-4.2-3.1-6.1
				c-1.4-1.8-3.1-3.3-5.2-4.4C777.3,604.5,774.9,604,772.1,604 M772.8,643.7c-3.3,0-6.3-0.5-8.9-1.6s-4.9-2.6-6.8-4.5
				c-1.9-1.9-3.3-4.1-4.4-6.7c-1-2.6-1.5-5.4-1.5-8.4c0-3.2,0.6-6.2,1.7-8.9c1.1-2.7,2.7-5,4.7-6.9c2-1.9,4.3-3.4,7-4.5
				c2.7-1.1,5.6-1.6,8.8-1.6c3.2,0,6.1,0.5,8.7,1.5c2.6,1,4.9,2.5,6.8,4.3c1.9,1.8,3.4,4,4.5,6.6c1.1,2.5,1.6,5.3,1.6,8.4
				c0,2.8-0.5,5.6-1.4,8.3c-1,2.7-2.4,5-4.3,7.1c-1.9,2-4.2,3.7-6.9,5S776.4,643.7,772.8,643.7"/>
			<path d="M842.8,643c-1.1,0-2.2-0.2-3.1-0.7c-1-0.5-1.8-1-2.5-1.6c-0.9-0.7-1.6-1.5-2.4-2.4L822,621.8l-2.1,2.1v12.9
				c0,0.5,0.1,1,0.2,1.6c0.1,0.6,0.4,1.2,0.6,1.7c0.3,0.6,0.6,1,1,1.4c0.4,0.4,0.9,0.5,1.4,0.5v1h-12.9v-1c0.5,0,0.9-0.2,1.3-0.5
				c0.4-0.4,0.7-0.8,1-1.3c0.3-0.5,0.5-1.1,0.6-1.7c0.1-0.6,0.2-1.2,0.2-1.7v-50.5c0-0.9-0.3-1.8-0.9-2.8c-0.6-0.9-1.4-1.4-2.4-1.5
				v-1l9.8-3.1v41.4l16.1-15.1c0.3-0.3,0.5-0.7,0.5-1.2s-0.2-0.7-0.7-0.7v-1h8.9v1c-0.4,0-0.8,0.1-1.2,0.3c-0.4,0.2-0.9,0.4-1.2,0.7
				c-0.5,0.3-0.9,0.6-1.4,1l-14.1,13.1l14.7,18.5c0.9,1.2,1.7,2.2,2.6,3.1c0.7,0.7,1.5,1.4,2.3,2c0.8,0.6,1.5,0.9,2.1,0.9v1H842.8z"
				/>
			<path d="M862,638.8c0-1.3,0.4-2.5,1.3-3.4c0.9-0.9,2-1.4,3.3-1.4s2.4,0.5,3.4,1.4c0.9,0.9,1.4,2.1,1.4,3.4c0,1.3-0.5,2.4-1.4,3.3
				c-0.9,0.9-2.1,1.3-3.4,1.3s-2.4-0.4-3.3-1.3C862.5,641.2,862,640.1,862,638.8"/>
			<path d="M909.2,640.4c2.3-0.1,4.3-0.6,6-1.6c1.7-1,3.1-2.3,4.3-3.9c1.1-1.6,2-3.4,2.5-5.3c0.5-2,0.8-4,0.8-6.1c0-2.4-0.3-4.7-1-7
				c-0.7-2.3-1.6-4.4-2.9-6.2c-1.3-1.8-2.8-3.3-4.6-4.5c-1.8-1.2-3.9-1.7-6.2-1.7c-1.4,0-2.8,0.3-4.1,0.8c-1.3,0.5-2.6,1.3-3.6,2.3
				c-1,1-1.8,2.2-2.5,3.5c-0.6,1.3-1,2.9-1,4.5v13c0,1.8,0.4,3.4,1.1,4.9c0.7,1.5,1.7,2.8,2.8,3.9c1.2,1.1,2.5,1.9,3.9,2.5
				C906.3,640.1,907.8,640.4,909.2,640.4 M908.3,600.7c3.6,0,6.7,0.6,9.3,1.8c2.6,1.2,4.8,2.8,6.5,4.8c1.8,2,3.1,4.3,3.9,6.8
				c0.9,2.6,1.3,5.2,1.3,7.9c0,2.6-0.4,5.3-1.2,7.8s-2.1,4.9-3.8,6.9c-1.7,2-3.8,3.7-6.3,5c-2.5,1.3-5.5,1.9-8.9,1.9
				c-2,0-4.2-0.5-6.3-1.6c-2.1-1.1-4.1-2.5-5.8-4.1v19.4c0,0.5,0.1,1.1,0.2,1.7c0.1,0.6,0.4,1.2,0.6,1.7c0.3,0.5,0.6,1,1,1.4
				c0.4,0.4,0.8,0.6,1.3,0.6v1h-12.9v-1c0.5,0,0.9-0.2,1.3-0.6c0.4-0.4,0.7-0.9,1-1.4c0.3-0.5,0.5-1.1,0.6-1.7
				c0.1-0.6,0.2-1.2,0.2-1.7v-50.2c0-0.6,0-1.2,0-1.7c0-0.6-0.1-1.1-0.4-1.5c-0.2-0.4-0.5-0.8-0.9-1.1c-0.4-0.3-1-0.5-1.8-0.5v-1
				h9.7v4.4c1.3-1.6,2.9-2.8,4.8-3.7C903.7,601.1,905.9,600.7,908.3,600.7"/>
			<path d="M944.6,643v-1c0.5,0,1-0.2,1.4-0.6c0.4-0.4,0.7-0.9,1-1.4c0.3-0.5,0.5-1.1,0.6-1.7c0.1-0.6,0.2-1.2,0.2-1.7v-50.8
				c0-1.1-0.2-2.2-0.5-3.2c-0.3-1-1.3-1.5-3-1.6v-1l10-3.1v59.6c0,0.5,0.1,1.1,0.2,1.7c0.1,0.6,0.3,1.2,0.6,1.7c0.3,0.5,0.6,1,1,1.4
				c0.4,0.4,0.8,0.6,1.3,0.6v1H944.6z"/>
			<rect x="0" fill="none" width="1136.3" height="644.6"/>
		</g>
	</g>
</g>
<g id="Warstwa_2">
</g>
</svg>
