<?xml version="1.0" encoding="utf-8"?>
<!-- Generator: Adobe Illustrator 24.0.1, SVG Export Plug-In . SVG Version: 6.00 Build 0)  -->
<svg version="1.2" baseProfile="tiny" id="Warstwa_1"
	 xmlns="http://www.w3.org/2000/svg" xmlns:xlink="http://www.w3.org/1999/xlink" x="0px" y="0px" viewBox="0 0 686 771"
	 xml:space="preserve">
<g>
	<path d="M588.1,54.8C421.7-19.3,252.9-20.8,88.3,62C29.2,91.8-7.9,144.7,2,212.2c30.6,208.9,121.3,388.7,277.7,532.6
		c36.3,33.4,77.7,35.8,117.4,3.2C565.9,609.4,644,421.9,686.2,215.7C688.9,138.8,652.2,83.4,588.1,54.8z"/>
	<g>
		<path fill="#FFFFFF" d="M239.2,384.6h-3.4l-50-102.5V374H201v41.3h-79.8V374h15.2V230.9h-15.2v-41.3h70.2l45.9,98.4l46.6-98.4
			h69.9v41.3h-15.2V374h15.2v41.3H274V374h15.2v-91.9L239.2,384.6z"/>
		<path fill="#FFFFFF" d="M565.5,374v41.3h-81.7V374h14.9v-50.6h-56.8V374h15.2v41.3h-81.7V374h15.2V230.9h-15.2v-41.3h81.7v41.3
			h-15.2v54.3h56.8v-54.3h-14.9v-41.3h81.7v41.3h-15.2V374H565.5z"/>
	</g>
</g>
</svg>
