<?xml version="1.0" encoding="utf-8"?>
<!-- Generator: Adobe Illustrator 24.0.1, SVG Export Plug-In . SVG Version: 6.00 Build 0)  -->
<svg version="1.2" baseProfile="tiny" id="Warstwa_1"
	 xmlns="http://www.w3.org/2000/svg" xmlns:xlink="http://www.w3.org/1999/xlink" x="0px" y="0px" viewBox="0 0 1140.4 527.1"
	 xml:space="preserve">
<g>
	<path fill-rule="evenodd" fill="#B4D9BE" stroke="#B4D9BE" stroke-width="0.5669" stroke-miterlimit="22.9256" d="M570.2,527.1
		c314.9,0,570.2-118,570.2-263.6S885.1,0,570.2,0S0,118,0,263.6S255.3,527.1,570.2,527.1L570.2,527.1z"/>
	<path fill-rule="evenodd" d="M457.7,447c5.2-6.4,10.2,6.1,8.3,9.6C463.1,462,447.9,459.7,457.7,447L457.7,447z M416.1,454.9
		c-3.8-7.4-0.1-13.5,7.9-16.1C430.8,437.8,420,460.3,416.1,454.9L416.1,454.9z M531.9,408.8c2.2-7.3,15.7-0.9,14,5.2
		C542.1,422.2,531.5,418.7,531.9,408.8L531.9,408.8z M542.5,370.7c1.8-5.2,15.7-8,16.9-0.4C559.2,373.5,542.2,377,542.5,370.7
		L542.5,370.7z M484.5,327.1c-3.5-3.6,4-18.9,8.6-14.3C497.5,319.7,489.3,330.1,484.5,327.1L484.5,327.1z M656.6,284.4
		c43.2,7.2,300.6,85.4,308.6,92.6c-6.6,0.2-31-6.8-40.2-8.3c-51.9-8.4-103.3-1.8-140-10C758.1,352.7,661.1,309.7,656.6,284.4
		L656.6,284.4z M509.9,284.6c1.4-1.1-0.3-0.6,3.6-1.8c7.3-2.1,76.8-4.2,83.4-4.3c11.6-0.1,33.2-0.8,43.2,5.2
		C750.2,366.8,539.9,296.2,509.9,284.6L509.9,284.6z M677.9,280.6c38.8-5.9,113.2,8.8,154.6,17.4c38.8,8.1,116.5,44.1,133.4,66.6
		c-22.1-5.5-47.1-15.7-69.9-22.4C824.3,321.3,746.2,306,677.9,280.6L677.9,280.6z M803.6,254c4.4,10.4,16.2,16.3,12.7,17.7
		c-9.4,3.6-38.5,12.7-44.3,7.1c-2.3-3.1,13.4-16.2,19.3-22.4c2.7-2.7,7.6-11.4,9-10L803.6,254L803.6,254z M483.4,250.9
		c4.7,7.1,7.7,9.6,10.8,10.1c4.4,0.7,8.4-1.9,21.1-13.8c0.2,5.6,0.7,10.9,1.9,14.7c2.8,8.4,6.9,11.8,5.2,11.6l-55.8,1.9
		C473.1,269.8,479.5,258.8,483.4,250.9L483.4,250.9z M645.5,269.5c12.5-18.5,20.2-57,14.7,0.3L645.5,269.5L645.5,269.5z
		 M721.7,272.1c0.6-12.3,14.1-47.2,18.6-44.7c7.6,4.5-6.1,34.1-1,34c2.4,0,9-4.6,23.5-24.5c0.9-0.9,1.5,1,1,5.4
		c-1.5,12.4-2.4,27.6-3.2,29.7C759.6,278.5,734,274.8,721.7,272.1L721.7,272.1z M681.1,269.4c9-11.3,16.8-18.9,24.1-28.9
		c4.9-6.8,10-11.8,14.9-18.5c5-5.3-3.8,34.6-6.8,49.4L681.1,269.4L681.1,269.4z M623.3,270.1c9.2-42.4,26.5-71.5,16.7-0.2
		L623.3,270.1L623.3,270.1z M546.7,212c24.1-13.7,20,39.3-8.5,53.3C509.6,279.3,526.4,223.6,546.7,212L546.7,212z M616.3,228.1
		c2.7-3.2,4.2-6,5.3,0.6c1.9,11.4-0.2,26.5-7.4,41.5c-18.3,1.2-72.7,4.5-67.8,2c0.2-0.7,14.5-17.5,14.7-17.8
		c7.1,11,11.2,19.3,25.6,6.2L616.3,228.1L616.3,228.1z M388.4,211.7c26.5-12.6,17.2,40.2-7.5,54C351.8,282,367.5,221.7,388.4,211.7
		L388.4,211.7z M851,254.8c9.1-15.7,13.2-18.1,30.5-22.8c29.4-9.2,54.4-20,64.6-21.4C980.4,205.8,909.7,229.7,851,254.8L851,254.8z
		 M810.5,241.9c-5.2-2.1,4-38.2,15-35.1C842.5,210.4,821.8,246.2,810.5,241.9L810.5,241.9z M467.9,212.2
		c27.3-13.5,10.1,45.9-3.2,53.7c-16.6,9.8-14.8-16.2-12.4-25.5C455.3,229.1,458.5,216.9,467.9,212.2L467.9,212.2z M817.4,283.5
		c20.9-19.9,69.5-35.7,113.6-55c203.8-89.4,35.4,16.3-54,47.1C852.8,283.9,842.5,292.7,817.4,283.5L817.4,283.5z M411.7,225.8
		c1.7-10.8-1.3-15.7-4.5-18.4c-10-8.6-24.2-3.1-32.4,6.6c-5.1,6-7.5,11.3-10.9,18.4c-6.1,13.1-29.7,43.4-44.7,40.6
		c-12.3-2.3-14.8-27.5-12.4-52.1c1.7-18.3,7-36.6,8.5-43.3c24.8-97.3,30.9-136-23.5-3c-38.1,82.1-65.2,122.9-59.8-1.2
		c3.2-43,15.6-72.2,4.7-81c-23.4-14.9-57.5,81.1-63.5,99.1c-8,24-13.2,45.5-13.8,71.2c-0.4,15.4,0,55.6,16,55.5
		c23.4-0.2,4.5-8.5,2.5-10.8c-16.3-15.8-11.9-62.5,1.5-105.4c17.3-55.4,41.4-103.8,50.6-97.6c3.6,2.8-5.3,37.2-7.9,72.2
		c-4.6,61.4-0.2,126.7,41.1,69.7c8.4-10.9,14-21.4,24.9-43c17.2-34.3,21.4-46.4,26.2-57c1.6-2.4,1.3,0.4,0,6
		c-7.9,34.2-26,82.4-10.5,116.4c10.1,22.2,32.7,16,54.4-17c1.5,41.5,27.4,23.7,44.1,4.5c14.1,18.1,30.2-0.4,41.2-11.7
		c0.4,11.4-0.8,19.4,5.8,29.2c1.1,1,2.2,1.9,2.9,3c-68.7,4.8-136.5,13.6-205.1,20.2c-20,1.9-52.7,1.9-69.8,5
		c4.2,7.5,5.7,6.9,15.8,6.3l61.8-4.9c91.2-9.5,63.7-4.2,133.8,37.9c19.2,11.5,40.5,21,55.6,35c-10.6,19.8-10.7,31.4-17.9,45.2
		c-7.2,14-32.5,24.2-15.7,40.7c34.2,20.5,15.7-57.3,37.9-75c2.3,5.5,8.2,37.8,8.1,44.6c-0.2,13.4-22.9,26.2-5.2,37.8
		c18.1,8.4,26.4-14.2,19.5-28.6c-8.7-18.2-12.3-21.8-9.9-43.6c2.3,0.6,15.9,17.8,18.9,21.6c16.2,21,2.3,49.8,22.5,44.3
		c29.9-13.5-29.5-51.5-35.7-83.6c32.8,12.6,82.8,73.5,86.1,34.5c-0.7-17.9-20.9-14.9-34.9-20.1c-8.8-3.2-29-10.6-35.9-18
		c38.8-3.9,82.1,13,86.8-1.4c2.8-9.6-4.1-14.6-13.5-16.8c-7.7-1.8-13.1,3.5-20.3,6.3c-15.7,6.2-34.8,6.6-48.6-1.6
		c15.3-10.5,25-7.3,41.2-11.5c23.3-6.1,16.6-24.7,4.5-25c-9.6-0.3-28,28.8-67.6,35.1c11-14.1,13.4-15.6,27.9-26.6
		c9.1-6.9,22.8-26.9,4-29.9c-22.2-3.6-17.2,19.5-22.3,30.2c-4.8,10-17.1,23.2-23.9,30.4c-32.6-13-88.3-45.1-113.1-68.6
		c-5.7-7.2,65.5-10,85.6-11c35.9-1.7,50.6-6.4,84.9,7.6c48.4,19.8,98.1,38.7,150.8,42.2c14.5,0.9,35.8-2.6,47.8,0.5
		c8.9,2.2,23.2,11.6,32.5,15.8c55.2,25.1,112.7,16.7,170.7,22.1c36.2,3.3,66,25.4,72.8,8.7c3.2-34.4-99.2-77.4-127-87.6
		c3.2-3.8,9-5.1,13.8-6.8c32-11.6,64.5-24,95-38.5c171-93.6,54.9-74-49-34.1c-16.1,5-50.6,10.5-59.8,23.6
		c-7.1,10.2-9,15.2-19.5,21.5c-11.2,6.7-19.4,2.3-25.2-10.5c-1.5-1.5,16.3-2.8,23.5-15.2c23.2-39.6-29-56.9-32.4,0.2
		c-8.2,7.6-29,36.4-33.2,31.7c-0.9-1.8-0.4-4.9-0.3-7.5c0.7-20.4,13.9-55.1-19.6-14.5c-2.3,1,0.2-12.9,0.2-16.3
		c-0.1-17.7-5.8-24.8-19.1,0.6c-4.4-52.7-44.4,39.2-60.1,38c-5-0.9,10.2-88.6-19.6-24.3c-0.9-6.3-0.7-12.8-1.5-17
		c-2.6-15.1-6-14.8-17.9,4.6c-4.2-55.2-46.9,47.2-60.6,26.9c-5.6-12.5,10.1-47.1-10.9-54.4c-25.4-4.8-51.9,61-66,51
		c-12.5-10.8,6.8-127.3-0.2-127.5c-12.3,2-5.2,60.3-9.7,77.7c-20.2-3.6-30.5,13.9-40.3,30.4c-10.2,17.1-32.9,33.7-36.4,16.3
		L411.7,225.8L411.7,225.8z"/>
</g>
</svg>
