<?xml version="1.0" encoding="utf-8"?>
<!-- Generator: Adobe Illustrator 24.0.1, SVG Export Plug-In . SVG Version: 6.00 Build 0)  -->
<svg version="1.2" baseProfile="tiny" id="Warstwa_1"
	 xmlns="http://www.w3.org/2000/svg" xmlns:xlink="http://www.w3.org/1999/xlink" x="0px" y="0px" viewBox="0 0 1283.7 572.2"
	 xml:space="preserve">
<g>
	<path d="M687.7,480c17.9-47.9,22.3-56.8,11.9-79.5c133.5,0.3,268.2,23.8,401.8,45.8C889.5,434.1,782.6,469.9,687.7,480z"/>
	<path d="M595,480c-137.4-20.6-273.5-51.9-414.8-30.5c132.3-30.2,266.3-46,403.3-49.3C565.5,428.7,585.7,453.7,595,480z"/>
	<path d="M66.8,356c14.4-0.7,28.8-1.4,43.2-2c0.2,0.5-28.2,16.3-42.6,23.6c0.1,0.6,0.2,1.2,0.2,1.8c14.2-1.3,28.4-2.6,42.6-3.9
		c0.2,0.5-25,16.2-37.9,23.5c0.2,0.6,0.4,1.1,0.6,1.7c14.5-1.2,29.1-2.5,43.6-3.7c0.2,0.5-24.4,14.8-37,21.5c0.2,0.5,0.4,1,0.5,1.5
		c13.1-1,26.2-2,39.4-3c0.2,0.5-22,16.2-33.4,23.6c0.2,0.7,0.3,1.3,0.5,2c13.9-2.8,27.9-5.6,41.8-8.4c0.2,0.5-24.6,18.5-37.3,26.9
		c0.2,0.6,0.3,1.1,0.5,1.7c14-3,28-6,43.6-9.3c-20.9,14-40.5,27-60.7,40.5c-21.1-97.1-42.5-195.1-64.2-294.9
		c22.3,3.1,43.3,5.9,67.2,9.2c-15.1,6.5-27.6,11.8-40.1,17.1c0,0.8,0.1,1.6,0.1,2.4c17,0,34,0,51,0c0.1,1-30.1,15-45.3,20.9
		c0,0.4,0.1,0.9,0.1,1.3c14.5,0,29.1,0,43.6,0c0.3,0.6-22.5,14-34.1,20.2c0.1,0.8,0.2,1.6,0.3,2.4c12.3-1.3,24.7-2.6,37-4
		c0.1,0.6,0.3,1.1,0.4,1.7c-12.6,7.6-25.3,15.2-37.9,22.8c0.2,0.7,0.4,1.4,0.5,2c13.9-0.8,27.7-1.5,41.6-2.3
		c0.2,0.5-23.9,13.4-36.2,19.3c0.1,0.6,0.2,1.3,0.3,1.9c13.2,0,26.3,0,39.5,0c0.2,0.8-24.7,13-37.3,18.2c0.1,0.4,0.1,0.8,0.2,1.2
		c13.7,0,27.4,0,43.9,0c-14.8,7.7-27,14-39.2,20.4C66.4,354.6,66.6,355.3,66.8,356z"/>
	<path d="M1019.9,127.3c0,0,6.9,1.7,9.1,1.6c6.4-0.3,6.7-3.7,6.9-7.4c0.4-7.5-12.2-11.5-22.3-10.3c-7.9,0.9-12.9,9.4-10,16.8
		c19.9,50,232.5,38.4,250.2,24.6c-9.3,7.2-34.5,15.2-45.4,19.7c0.4,1.2,49.1-8.4,73.5-12.8c-120.7,68-497.7-50.4-497.7-50.4l5.9-5.9
		c0,0,147,30.4,203.5,40c1.8,0.3,3.1-1.5,2.3-3.2c-26-55.4,77.2-34.7,39.1-6.2c-1,0.7-2.7,1.3-3.9,1.2
		C1028.3,135,1023.5,134.5,1019.9,127.3z"/>
	<path d="M488.4,119c0,0-395,103.2-488.8,40.5c21.9,3.9,58.8,12.8,88.3,14.8c-11.8-3.9-39.5-11.8-51.2-19
		c60.4,15.4,123.6,14.5,185.1,1.5c113-26,30.7-64.7,25.8-36.8c-0.8,4.2,2.9,7.9,7.1,7.7c3.8-0.3,7.7-0.5,11.5-0.8
		c-13.7,20.2-40.7-2.4-23.2-15.5c26.4-19.9,63.1,0.7,39.3,33.2c62-15,196.2-37.2,196.2-37.2L488.4,119z"/>
	<path d="M694.8,425.2c-6.6,32.4-18.9,61.8-45.4,83.6c-6.2,5.1-12.7,4.7-18.4-0.5c-24.6-22.6-38.8-50.8-43.6-83.6
		c-1.6-10.6,4.3-18.9,13.6-23.6c25.9-13,52.4-12.8,78.5-1.1C689.4,404.4,695.2,413.1,694.8,425.2z M622.6,471.1
		c6.1-4.2,12.3-8.4,18.4-12.5c6.2,4.3,12,8.4,17.8,12.4c-7.7-15.8-4.5-27.6,13-36.9c-20.9,6.7-27.1-5.2-31.4-21.4
		c-1.2,19.7-12.5,24.7-30.2,23.1C628.6,443.6,630.2,455.3,622.6,471.1z"/>
	<path d="M110.1,544.2c-98.6-123.3,298.2-41.1,333.5-64.5C376.5,524.3,82.9,437.4,110.1,544.2z"/>
	<path d="M843,482.4c49,11.2,435.3-52.2,327.4,61.1c42.8-98.4-298.3-27.4-327.7-59.5C842.8,483.4,842.9,482.9,843,482.4z"/>
	<path d="M18.1,124.4c9.5,28.2,104.6,23.5,133.7,23.1c3.1,0,5.7-2,6.9-4.8c3.1-7,15-11.5,18.5-5c8.9,19.8-22.1,14-36,14.9
		C114,154.2,4.6,151.8,3.5,126.7C3.1,118.3,15.5,116.4,18.1,124.4z"/>
	<path d="M1258.7,105.4c96,55.1-201.1,61.2-152.7,29c6.1-3.1,12-1.3,15,3.7c3.4,5.7,9.3,9.6,16,9.7
		C1185.6,148.5,1287,150.4,1258.7,105.4z"/>
	<path d="M296.4,504.8c-61.7,1.6-135.3-8.8-159.9,27.4C118.1,489.6,287.7,499.2,296.4,504.8z"/>
	<path d="M1145.7,533.3c-27.5-42.1-129-24.4-158.9-29.2c0-0.8-0.1-1.6-0.1-2.4C1032.2,501.5,1161.2,491.7,1145.7,533.3z"/>
	<g>
		<path d="M225.7,339.6l-1.6,0.3L193.2,297l7.3,42l6.9-1.2l3.3,18.9l-36.4,6.3l-3.3-18.9l6.9-1.2l-11.3-65.4l-6.9,1.2l-3.3-18.9
			l32-5.5l28.8,41.3l13.5-48.6l31.9-5.5l3.3,18.9l-6.9,1.2l11.3,65.4l6.9-1.2l3.3,18.9l-36.4,6.3l-3.3-18.9l6.9-1.2l-7.3-42
			L225.7,339.6z"/>
		<path d="M294,323l-10.3-65.5l-7,1.1l-3-18.9l74-11.7l5.5,35.1l-22.9,3.6l-2.6-16.2l-20.7,3.3l3.9,24.6l26.3-4.1l2.8,17.5
			l-26.3,4.1l3.7,23.4l20.7-3.3l-2.5-16.1l22.9-3.6l5.5,35L290,343l-3-18.9L294,323z"/>
		<path d="M387,241.8l2.9,23.6l-21.6,2.7l-5.3-42.5l91.7-11.4l5.3,42.5l-21.4,2.7l-2.9-23.6l-12.3,1.5l8.2,65.8l8.1-1l2.4,19
			l-40.4,5l-2.4-19l8-1l-8.2-65.8L387,241.8z"/>
		<path d="M536.6,207.8l1.4,19.1l-8.6,0.6l20.7,65l7.7-0.6l1.4,19.1l-37.7,2.8l-1.4-19.1l6.6-0.5l-3.1-10.2l-26.4,2l-1.4,10.5
			l6.6-0.5l1.4,19.1l-37.7,2.8l-1.4-19.1l7.7-0.6l11.1-67.3l-8.6,0.6l-1.4-19.1L536.6,207.8z M499.7,269.2l19.2-1.4l-11.4-38.7
			l-2.2,0.2L499.7,269.2z"/>
		<path d="M639.6,309.9l-73.1,1l-0.3-19.1l7-0.1l-0.9-66.3l-7,0.1l-0.3-19.1l41.4-0.6l0.3,19.1l-10.6,0.1l0.9,66.3l18.4-0.2
			l-0.3-23.7L639,267L639.6,309.9z"/>
		<path d="M738.5,294.7l-0.9,19.1l-37.8-1.7l0.9-19.1l6.9,0.3l1-23.4l-26.3-1.2l-1,23.4l7,0.3l-0.9,19.1l-37.8-1.7l0.9-19.1l7,0.3
			l3-66.3l-7-0.3l0.9-19.1l37.8,1.7l-0.9,19.1l-7-0.3l-1.1,25.2l26.3,1.2l1.1-25.2l-6.9-0.3l0.9-19.1l37.8,1.7l-0.9,19.1l-7-0.3
			l-3,66.3L738.5,294.7z"/>
		<path d="M755.3,296.3l6.2-66l-7-0.7l1.8-19.1l74.6,7l-3.3,35.4l-23.1-2.2l1.5-16.3l-20.9-2l-2.3,24.8l26.5,2.5l-1.7,17.6
			l-26.5-2.5l-2.2,23.6l20.9,2l1.5-16.2l23.1,2.2l-3.3,35.2l-74.6-7l1.8-19.1L755.3,296.3z"/>
		<path d="M922.3,229.1l-2.5,19l-8.6-1.1l7.1,67.8l7.7,1l-2.5,19l-37.5-4.9l2.5-19l6.6,0.9l-0.9-10.6l-26.2-3.4l-3.5,10l6.6,0.9
			l-2.5,19l-37.5-4.9l2.5-19l7.7,1l24.6-63.7l-8.6-1.1l2.5-19L922.3,229.1z M873.6,281.8l19.1,2.5l-3.3-40.2l-2.1-0.3L873.6,281.8z"
			/>
		<path d="M971.8,323.1l-3,18.9l-37.4-5.9l3-18.9l7,1.1l10.4-65.5l-7-1.1l3-18.9l62.1,9.8c2.1,0.3,4,1.1,5.8,2.2
			c1.8,1.2,3.2,2.6,4.4,4.2c1.2,1.6,2,3.5,2.6,5.5c0.5,2,0.6,4.1,0.3,6.2l-5.4,34.1c-0.3,1.9-1,3.6-2.1,5.2c-1.1,1.6-2.4,2.9-3.9,4
			c-1.5,1.1-3.2,2-5.1,2.7c-1.9,0.7-3.7,1.1-5.4,1.2l7.3,21l8.1,1.3l-3,18.9l-25.9-4.1l-11.9-40.8L968,303l-3,19L971.8,323.1z
			 M991.6,288.1c0.9,0.1,1.6,0,2.3-0.5c0.7-0.5,1.1-1.1,1.2-1.8l3.6-22.5c0.1-0.9-0.1-1.6-0.6-2.3c-0.5-0.7-1.2-1.1-2.1-1.2
			l-20.7-3.3l-4.5,28.3L991.6,288.1z"/>
		<path d="M1057.8,270.1l-4.2,23.4l-21.4-3.8l7.5-42.2l90.9,16.2l-7.5,42.2L1102,302l4.2-23.4l-12.2-2.2l-11.6,65.3l8.1,1.4
			l-3.3,18.8l-40.1-7.1l3.3-18.8l7.9,1.4l11.6-65.3L1057.8,270.1z"/>
	</g>
	<g>
		<path d="M503.3,542.5c-1.1,0-1.6,0.6-2.1,1.9l-7.2,17.9l-6.1-15l-6.1,15l-7-17.4c-0.4-1.1-1-2.4-2.1-2.4V542h6.5v0.5
			c-0.4,0-1.3,0.4-1.3,1.3c0,0.1,0.1,0.6,0.2,0.9l4.7,11.5l6-14.8l6,14.8l4.7-11.7c0.1-0.5,0.2-0.8,0.2-1c0-0.5-0.3-1-1-1.1V542h4.7
			V542.5z"/>
		<path d="M535.3,542.5c-1.1,0-1.6,0.6-2.1,1.9l-7.2,17.9l-6.1-15l-6.1,15l-7-17.4c-0.4-1.1-1-2.4-2.1-2.4V542h6.5v0.5
			c-0.4,0-1.3,0.4-1.3,1.3c0,0.1,0.1,0.6,0.2,0.9l4.7,11.5l6-14.8l6,14.8l4.7-11.7c0.1-0.5,0.2-0.8,0.2-1c0-0.5-0.3-1-1-1.1V542h4.7
			V542.5z"/>
		<path d="M567.3,542.5c-1.1,0-1.6,0.6-2.1,1.9l-7.2,17.9l-6.1-15l-6.1,15l-7-17.4c-0.4-1.1-1-2.4-2.1-2.4V542h6.5v0.5
			c-0.4,0-1.3,0.4-1.3,1.3c0,0.1,0.1,0.6,0.2,0.9l4.7,11.5l6-14.8l6,14.8l4.7-11.7c0.1-0.5,0.2-0.8,0.2-1c0-0.5-0.3-1-1-1.1V542h4.7
			V542.5z"/>
		<path d="M565.9,557.6c1.3,0,2.3,1,2.3,2.3c0,1.3-1,2.2-2.3,2.2s-2.2-0.9-2.2-2.2C563.7,558.6,564.6,557.6,565.9,557.6z"/>
		<path d="M588.7,561.9c-1.1,0-2-0.6-2.7-1.1c-0.4-0.3-0.8-0.7-1.1-1.1l-6.1-7.9l-1,1v6.2c0,0.9,0.6,2.5,1.6,2.5v0.5h-6.2v-0.5
			c0.9,0,1.5-1.6,1.5-2.5v-24.2c0-0.9-0.6-2-1.6-2v-0.5l4.7-1.5v19.8l7.7-7.2c0.1-0.1,0.2-0.3,0.2-0.6s-0.1-0.3-0.3-0.3V542h4.3v0.5
			c-0.4,0-0.8,0.2-1.2,0.5l-0.7,0.5l-6.7,6.3l7,8.9c0.4,0.6,0.8,1,1.2,1.5c0.7,0.7,1.6,1.4,2.1,1.4v0.5H588.7z"/>
		<path d="M606.3,545.5c-0.8-1.3-1.5-1.4-2.6-1.4c-1.4,0-3.3,1.5-4.3,2.5v12.3c0,0.9,0.6,2.6,1.5,2.6v0.5h-6.2v-0.5
			c0.9,0,1.5-1.6,1.5-2.6v-13.2c0-0.9-0.6-1.9-1.7-2.2v-0.4l4.8-1.4v2.8c1.1-1.4,2.5-2.8,4.9-2.8c0.9,0,2.5,0.5,3.4,0.9L606.3,545.5
			z"/>
		<path d="M610.4,552.1c0-6.2,4.6-10.4,10.6-10.4s10.3,4.1,10.3,10c0,5.5-3.7,10.6-10.6,10.6C614.4,562.3,610.4,557.9,610.4,552.1z
			 M613.4,551.6c0,4.7,3,9.1,7.7,9.1c4.7,0,7.2-4.5,7.2-8.5c0-4.2-2.6-9-7.9-9C615.9,543.5,613.4,547.5,613.4,551.6z"/>
		<path d="M635.8,561.9v-0.5c1,0,1.6-1.7,1.6-2.6v-24.3c0-1.1-0.1-2.2-1.7-2.3v-0.5l4.8-1.5v28.5c0,1,0.6,2.6,1.5,2.6v0.5H635.8z"/>
		<path d="M647.2,561.9v-0.5c1,0,1.5-1.7,1.5-2.6v-13.1c0-1.1-0.1-2.3-1.6-2.3v-0.4l4.7-1.5v17.4c0,1,0.5,2.6,1.5,2.6v0.5H647.2z
			 M649.7,534.6c1.3,0,2.3,1,2.3,2.3c0,1.3-1,2.2-2.3,2.2c-1.3,0-2.2-0.9-2.2-2.2C647.4,535.6,648.4,534.6,649.7,534.6z"/>
		<path d="M666,562.3c-2.7,0-4.3-0.9-5.5-1.7c-0.8-0.5-1.5-0.9-2.3-0.9v-3.6h0.5c0.4,1.8,3.9,4.5,7,4.5c2.2,0,5.1-1,5.1-3.4
			s-3-3.4-5.8-4.3c-3.3-1-7-2.3-7-5.7c0-2.9,2.1-5.5,7.7-5.5c2.5,0,3.7,0.5,4.6,0.9c0.6,0.3,1.1,0.5,1.8,0.5v3.3h-0.4
			c-1.1-2.1-3.8-3.2-6.2-3.2c-3.2,0-4.5,1.8-4.5,3.2c0,2,2.7,3,5.5,3.9c3.6,1.1,7.4,2.5,7.4,6.2C673.9,559.8,670.4,562.3,666,562.3z
			"/>
		<path d="M708.3,558.8c0,1,0.5,2.6,1.5,2.6v0.5h-6.2v-0.5c1,0,1.6-1.7,1.6-2.6v-10.3c0-2.9-1.7-5.5-4.8-5.5c-3.4,0-4.9,3.7-4.9,5.2
			v10.5c0,1,0.6,2.6,1.5,2.6v0.5h-6.1v-0.5c0.9,0,1.5-1.7,1.5-2.6v-10.5c0-3.1-2.4-5.2-4.8-5.2c-3.3,0-4.9,2.8-4.9,4.8v10.9
			c0,1,0.6,2.6,1.5,2.6v0.5h-6.1v-0.5c0.9,0,1.5-1.7,1.5-2.6v-12.7c0-1-0.1-2.8-1.6-2.8V543l4.7-1.6v2.4c1-1.1,2.6-2.3,5.3-2.3
			c3.6,0,5.5,2.2,6.5,4.2c1-1.9,2.7-4.2,6.3-4.2c7.1,0,7.5,5.8,7.5,8.4V558.8z"/>
		<path d="M714.3,552.1c0-6.2,4.6-10.4,10.6-10.4s10.3,4.1,10.3,10c0,5.5-3.7,10.6-10.6,10.6C718.4,562.3,714.3,557.9,714.3,552.1z
			 M717.4,551.6c0,4.7,3,9.1,7.7,9.1c4.7,0,7.2-4.5,7.2-8.5c0-4.2-2.6-9-7.9-9C719.8,543.5,717.4,547.5,717.4,551.6z"/>
		<path d="M755.3,561.9c-1.1,0-2-0.6-2.7-1.1c-0.4-0.3-0.8-0.7-1.1-1.1l-6.1-7.9l-1,1v6.2c0,0.9,0.6,2.5,1.6,2.5v0.5h-6.2v-0.5
			c1,0,1.5-1.6,1.5-2.5v-24.2c0-0.9-0.6-2-1.6-2v-0.5l4.7-1.5v19.8l7.7-7.2c0.1-0.1,0.2-0.3,0.2-0.6s-0.1-0.3-0.3-0.3V542h4.3v0.5
			c-0.4,0-0.8,0.2-1.2,0.5l-0.7,0.5l-6.7,6.3l7,8.9c0.4,0.6,0.8,1,1.2,1.5c0.7,0.7,1.6,1.4,2.1,1.4v0.5H755.3z"/>
		<path d="M763.9,557.6c1.3,0,2.3,1,2.3,2.3c0,1.3-1,2.2-2.3,2.2c-1.3,0-2.2-0.9-2.2-2.2C761.7,558.6,762.6,557.6,763.9,557.6z"/>
		<path d="M791,551.9c0,5.1-3.1,10.3-9.7,10.3c-1.9,0-4.1-1.2-5.8-2.8v9.3c0,1,0.6,2.6,1.5,2.6v0.5h-6.2v-0.5c0.9,0,1.5-1.7,1.5-2.6
			v-24c0-1.1,0-2.2-1.5-2.3V542h4.7v2.1c1.3-1.5,3.1-2.4,5.4-2.4C787.8,541.7,791,546.7,791,551.9z M787.9,552.6
			c0-4.5-2.6-9.3-7-9.3c-2.7,0-5.3,2.1-5.3,5.3v6.2c0,3.4,3,5.8,5.8,5.8C785.9,560.5,787.9,556.5,787.9,552.6z"/>
		<path d="M795.5,561.9v-0.5c1,0,1.6-1.7,1.6-2.6v-24.3c0-1.1-0.1-2.2-1.7-2.3v-0.5l4.8-1.5v28.5c0,1,0.6,2.6,1.5,2.6v0.5H795.5z"/>
	</g>
	<polygon points="640.2,120.5 593.3,145.1 602.3,92.9 564.3,55.8 616.8,48.2 640.2,0.7 663.7,48.2 716.2,55.8 678.2,92.9 
		687.2,145.1 	"/>
	<polygon points="750.7,123 724.9,136.6 729.9,107.9 709,87.5 737.8,83.4 750.7,57.2 763.6,83.4 792.4,87.5 771.6,107.9 
		776.5,136.6 	"/>
	<polygon points="530.1,130 504.3,143.5 509.3,114.8 488.4,94.5 517.2,90.3 530.1,64.2 543,90.3 571.8,94.5 551,114.8 555.9,143.5 	
		"/>
	<polygon fill="#FFFFFF" points="642,464.3 619.8,476 624,451.2 606,433.7 630.9,430.1 642,407.5 653.2,430.1 678.1,433.7 
		660,451.2 664.3,476 	"/>
	<polygon points="642,458.6 627.4,466.3 630.2,450 618.3,438.4 634.7,436 642,421.2 649.4,436 665.7,438.4 653.9,450 656.7,466.3 	
		"/>
	<path d="M1214.4,355.6c-14.4-0.7-28.8-1.4-43.2-2c-0.2,0.5,28.2,16.3,42.6,23.6c-0.1,0.6-0.2,1.2-0.2,1.8
		c-14.2-1.3-28.4-2.6-42.6-3.9c-0.2,0.5,25,16.2,37.9,23.5c-0.2,0.6-0.4,1.1-0.6,1.7c-14.5-1.2-29.1-2.5-43.6-3.7
		c-0.2,0.5,24.4,14.8,37,21.5c-0.2,0.5-0.4,1-0.5,1.5c-13.1-1-26.2-2-39.4-3c-0.2,0.5,22,16.2,33.4,23.6c-0.2,0.7-0.3,1.3-0.5,2
		c-13.9-2.8-27.9-5.6-41.8-8.4c-0.2,0.5,24.6,18.5,37.3,26.9c-0.2,0.6-0.3,1.1-0.5,1.7c-14-3-28-6-43.6-9.3
		c20.9,14,40.5,27,60.7,40.5c21.1-97.1,42.5-195.1,64.2-294.9c-22.3,3.1-43.3,5.9-67.2,9.2c15.1,6.5,27.6,11.8,40.1,17.1
		c0,0.8-0.1,1.6-0.1,2.4c-17,0-34,0-51,0c-0.1,1,30.1,15,45.3,20.9c0,0.4-0.1,0.9-0.1,1.3c-14.5,0-29.1,0-43.6,0
		c-0.3,0.6,22.5,14,34.1,20.2c-0.1,0.8-0.2,1.6-0.3,2.4c-12.3-1.3-24.7-2.6-37-4c-0.1,0.6-0.3,1.1-0.4,1.7
		c12.6,7.6,25.3,15.2,37.9,22.8c-0.2,0.7-0.4,1.4-0.5,2c-13.9-0.8-27.7-1.5-41.6-2.3c-0.2,0.5,23.9,13.4,36.2,19.3
		c-0.1,0.6-0.2,1.3-0.3,1.9c-13.2,0-26.3,0-39.5,0c-0.2,0.8,24.7,13,37.3,18.2c-0.1,0.4-0.1,0.8-0.2,1.2c-13.7,0-27.4,0-43.9,0
		c14.8,7.7,27,14,39.2,20.4C1214.8,354.2,1214.6,354.9,1214.4,355.6z"/>
</g>
</svg>
