<?xml version="1.0" encoding="utf-8"?>
<!-- Generator: Adobe Illustrator 24.0.1, SVG Export Plug-In . SVG Version: 6.00 Build 0)  -->
<svg version="1.2" baseProfile="tiny" id="Layer_1" xmlns="http://www.w3.org/2000/svg" xmlns:xlink="http://www.w3.org/1999/xlink"
	 x="0px" y="0px" viewBox="0 0 274.5 104.4" xml:space="preserve">
<g>
	<path d="M5.5,10.7L5.1,8.8H2.8l-0.4,1.9H0L2.5,0.3h2.9L8,10.7H5.5z M4,2.5L4,2.5L3,7h1.8L4,2.5z"/>
	<polygon points="13.5,10.7 11.3,5.8 11.2,5.8 11.2,10.7 8.9,10.7 8.9,0.3 11.2,0.3 11.2,4.6 11.3,4.6 13.4,0.3 16,0.3 13.4,5 
		16.2,10.7 	"/>
	<path d="M22.2,10.7l-0.4-1.9h-2.3L19,10.7h-2.3l2.5-10.4h2.9l2.5,10.4H22.2z M20.7,2.5L20.7,2.5L19.7,7h1.8L20.7,2.5z"/>
	<path d="M32.8,5.5c0,0.8-0.1,1.5-0.3,2.1c-0.2,0.6-0.4,1.2-0.8,1.6c-0.4,0.4-0.8,0.8-1.3,1c-0.5,0.2-1.2,0.4-1.9,0.4h-2.9V0.3h2.9
		c0.7,0,1.4,0.1,1.9,0.4c0.5,0.2,1,0.6,1.3,1c0.4,0.5,0.6,1,0.8,1.6C32.7,4,32.8,4.7,32.8,5.5 M30.4,5.5c0-1-0.2-1.8-0.5-2.4
		c-0.4-0.5-0.8-0.8-1.4-0.8h-0.6v6.3h0.6c0.6,0,1-0.3,1.4-0.8C30.3,7.3,30.4,6.5,30.4,5.5"/>
	<polygon points="34.1,10.7 34.1,0.3 39.1,0.3 39.1,2.3 36.4,2.3 36.4,4.4 38.9,4.4 38.9,6.3 36.4,6.3 36.4,8.6 39.3,8.6 39.3,10.7 
			"/>
	<polygon points="47.9,10.7 48,3.5 47.9,3.5 46.2,10.7 44.5,10.7 42.8,3.5 42.8,3.5 42.8,10.7 40.7,10.7 40.7,0.3 43.7,0.3 45.4,7 
		45.4,7 47,0.3 50.2,0.3 50.2,10.7 	"/>
	<rect x="51.9" y="0.3" width="2.4" height="10.4"/>
	<path d="M61.4,10.5c-0.5,0.3-1,0.4-1.8,0.4c-0.6,0-1.2-0.1-1.7-0.4c-0.5-0.3-0.9-0.6-1.3-1.1c-0.4-0.5-0.6-1.1-0.8-1.7
		c-0.2-0.7-0.3-1.4-0.3-2.2c0-0.8,0.1-1.6,0.3-2.2c0.2-0.7,0.5-1.3,0.8-1.7C57.1,1,57.5,0.7,58,0.4c0.5-0.3,1-0.4,1.7-0.4
		c0.7,0,1.3,0.1,1.7,0.4c0.5,0.2,0.8,0.6,1.1,0.9L61.3,3c-0.2-0.2-0.4-0.4-0.6-0.6c-0.2-0.1-0.5-0.2-0.8-0.2c-0.3,0-0.6,0.1-0.8,0.2
		c-0.2,0.2-0.4,0.4-0.6,0.7c-0.2,0.3-0.3,0.6-0.4,1C58,4.6,58,5,58,5.5c0,0.5,0,0.9,0.1,1.3c0.1,0.4,0.2,0.7,0.4,1
		c0.2,0.3,0.4,0.5,0.6,0.7c0.2,0.2,0.5,0.2,0.8,0.2c0.3,0,0.6-0.1,0.8-0.2c0.2-0.2,0.4-0.3,0.6-0.6l1.3,1.6
		C62.3,9.9,61.9,10.3,61.4,10.5"/>
	<polygon points="68.1,10.7 65.9,5.8 65.9,5.8 65.9,10.7 63.5,10.7 63.5,0.3 65.9,0.3 65.9,4.6 65.9,4.6 68,0.3 70.7,0.3 68,5 
		70.8,10.7 	"/>
	<rect x="71.8" y="0.3" width="2.4" height="10.4"/>
	<polygon points="75.9,10.7 75.9,0.3 80.9,0.3 80.9,2.3 78.1,2.3 78.1,4.4 80.7,4.4 80.7,6.3 78.1,6.3 78.1,8.6 81.1,8.6 81.1,10.7 
			"/>
	<path d="M4.7,24.5l-1.4-4.1H2.6v4.1H0.3V14.1h3.3c1,0,1.8,0.3,2.3,0.8c0.6,0.5,0.8,1.3,0.8,2.3c0,0.4,0,0.7-0.1,1
		c-0.1,0.3-0.2,0.6-0.3,0.8c-0.1,0.2-0.3,0.4-0.5,0.5c-0.2,0.1-0.3,0.2-0.5,0.3l1.8,4.6H4.7z M4.5,17.4c0-0.3,0-0.5-0.1-0.6
		c-0.1-0.2-0.2-0.3-0.3-0.4c-0.1-0.1-0.2-0.2-0.4-0.2c-0.1,0-0.3-0.1-0.4-0.1H2.6v2.6h0.7c0.3,0,0.6-0.1,0.9-0.3
		C4.4,18.2,4.5,17.9,4.5,17.4"/>
	<path d="M13.2,24.5l-0.4-1.9h-2.3L10,24.5H7.7l2.5-10.4h2.9l2.5,10.4H13.2z M11.7,16.4L11.7,16.4l-0.9,4.4h1.8L11.7,16.4z"/>
	<path d="M23.8,19.4c0,0.8-0.1,1.5-0.3,2.1c-0.2,0.6-0.4,1.2-0.8,1.6c-0.4,0.4-0.8,0.8-1.3,1c-0.5,0.2-1.2,0.4-1.9,0.4h-2.9V14.1
		h2.9c0.7,0,1.4,0.1,1.9,0.4c0.5,0.2,1,0.6,1.3,1c0.4,0.5,0.6,1,0.8,1.6C23.7,17.8,23.8,18.5,23.8,19.4 M21.4,19.4
		c0-1-0.2-1.8-0.5-2.4c-0.4-0.5-0.8-0.8-1.4-0.8h-0.6v6.3h0.6c0.6,0,1-0.3,1.4-0.8C21.3,21.1,21.4,20.4,21.4,19.4"/>
	<rect x="25.1" y="14.1" width="2.4" height="10.4"/>
	<path d="M36.8,19.3c0,0.8-0.1,1.6-0.3,2.3c-0.2,0.7-0.5,1.3-0.8,1.7c-0.3,0.5-0.8,0.8-1.3,1.1c-0.5,0.3-1,0.4-1.7,0.4
		c-0.6,0-1.2-0.1-1.7-0.4c-0.5-0.3-0.9-0.6-1.3-1.1c-0.3-0.5-0.6-1.1-0.8-1.7c-0.2-0.7-0.3-1.4-0.3-2.3c0-0.8,0.1-1.6,0.3-2.2
		c0.2-0.7,0.4-1.2,0.8-1.7c0.3-0.5,0.8-0.8,1.3-1.1c0.5-0.3,1.1-0.4,1.7-0.4c0.6,0,1.2,0.1,1.7,0.4c0.5,0.3,0.9,0.6,1.3,1.1
		c0.3,0.5,0.6,1,0.8,1.7C36.7,17.7,36.8,18.5,36.8,19.3 M34.4,19.3c0-0.4,0-0.9-0.1-1.3c-0.1-0.4-0.2-0.7-0.3-1
		c-0.1-0.3-0.3-0.5-0.5-0.7c-0.2-0.2-0.4-0.2-0.7-0.2c-0.3,0-0.5,0.1-0.7,0.2c-0.2,0.2-0.4,0.4-0.5,0.7c-0.1,0.3-0.2,0.6-0.3,1
		c-0.1,0.4-0.1,0.8-0.1,1.3c0,0.5,0,0.9,0.1,1.3c0.1,0.4,0.2,0.7,0.3,1c0.1,0.3,0.3,0.5,0.5,0.7c0.2,0.2,0.4,0.2,0.7,0.2
		c0.3,0,0.5-0.1,0.7-0.2c0.2-0.2,0.4-0.4,0.5-0.7c0.1-0.3,0.2-0.6,0.3-1C34.4,20.2,34.4,19.7,34.4,19.3"/>
	<path d="M232.1,100.6c-0.5,0-0.9-0.1-1.2-0.3c-0.3-0.2-0.6-0.4-0.9-0.7c-0.2-0.3-0.4-0.7-0.5-1.1c-0.1-0.4-0.2-0.9-0.2-1.3
		c0-0.6,0.1-1.1,0.3-1.6c0.2-0.5,0.4-0.8,0.7-1.1c0.3-0.3,0.7-0.5,1.1-0.7c0.4-0.2,0.9-0.2,1.3-0.2c0.5,0,0.9,0.1,1.3,0.2
		c0.4,0.2,0.8,0.4,1.1,0.7c0.3,0.3,0.5,0.7,0.7,1.1c0.2,0.5,0.3,1,0.3,1.6c0,0.6-0.1,1.2-0.2,1.7c-0.2,0.5-0.4,1-0.6,1.5l-2,3.8
		h-2.7l2-3.7l0,0c0,0-0.1,0.1-0.2,0.1C232.2,100.6,232.1,100.6,232.1,100.6 M231.6,97.2c0,0.5,0.1,0.9,0.3,1.2
		c0.2,0.3,0.5,0.5,0.8,0.5c0.3,0,0.6-0.2,0.8-0.5c0.2-0.3,0.3-0.7,0.3-1.2c0-0.5-0.1-0.9-0.3-1.2c-0.2-0.3-0.5-0.5-0.8-0.5
		c-0.3,0-0.6,0.2-0.8,0.5C231.7,96.3,231.6,96.7,231.6,97.2"/>
	<polygon points="239.7,104.2 239.7,96.5 238.1,97.7 237.1,95.9 239.9,93.8 242,93.8 242,104.2 	"/>
	<path d="M246.6,103c0,0.4-0.1,0.7-0.4,0.9c-0.2,0.3-0.5,0.4-0.9,0.4c-0.4,0-0.7-0.1-0.9-0.4c-0.2-0.3-0.3-0.6-0.3-0.9
		c0-0.4,0.1-0.7,0.3-0.9c0.2-0.3,0.5-0.4,0.9-0.4c0.4,0,0.7,0.1,0.9,0.4C246.5,102.3,246.6,102.6,246.6,103"/>
	<path d="M251.8,97.2c0.5,0,0.9,0.1,1.2,0.3c0.3,0.2,0.6,0.4,0.8,0.7c0.2,0.3,0.4,0.7,0.5,1.1c0.1,0.4,0.2,0.9,0.2,1.3
		c0,0.6-0.1,1.1-0.2,1.6c-0.2,0.5-0.4,0.9-0.7,1.2c-0.3,0.3-0.7,0.6-1.1,0.7c-0.4,0.2-0.9,0.2-1.4,0.2c-0.5,0-1-0.1-1.4-0.2
		c-0.4-0.2-0.8-0.4-1.1-0.7c-0.3-0.3-0.5-0.7-0.7-1.2c-0.2-0.5-0.3-1-0.3-1.6c0-0.6,0.1-1.2,0.2-1.7c0.2-0.5,0.4-1,0.6-1.5l2-3.7
		h2.7l-2,3.6l0,0c0,0,0.1-0.1,0.2-0.1C251.6,97.2,251.7,97.2,251.8,97.2 M252.2,100.6c0-0.5-0.1-0.9-0.3-1.2
		c-0.2-0.3-0.5-0.5-0.8-0.5c-0.3,0-0.6,0.2-0.8,0.5c-0.2,0.3-0.3,0.7-0.3,1.2c0,0.5,0.1,0.9,0.3,1.2c0.2,0.3,0.5,0.5,0.8,0.5
		c0.3,0,0.6-0.2,0.8-0.5C252.1,101.5,252.2,101.1,252.2,100.6"/>
	<polygon points="258,95.9 258,98 260.5,98 260.5,100 258,100 258,104.2 255.6,104.2 255.6,93.8 260.7,93.8 260.7,95.9 	"/>
	<polygon points="269,104.2 269.1,97 269.1,97 267.3,104.2 265.7,104.2 264,97 263.9,97 264,104.2 261.9,104.2 261.9,93.8 
		264.8,93.8 266.5,100.5 266.6,100.5 268.2,93.8 271.3,93.8 271.3,104.2 	"/>
	<polygon fill="#FC5000" points="208.4,41.9 191.1,41.9 191.1,14.1 177.2,14.1 177.2,55.7 222.3,55.7 222.3,14.1 208.4,14.1 	"/>
	<polygon fill="#FC5000" points="252.5,73.1 274.5,41.9 229.4,41.9 229.4,55.7 247.6,55.7 225.8,86.9 274.5,86.9 274.5,73.1 	"/>
	<polygon fill="#FC5000" points="14.2,38.4 0.3,38.4 0.3,83.5 180.7,83.5 180.7,69.6 14.2,69.6 	"/>
</g>
</svg>
