<?xml version="1.0" encoding="utf-8"?>
<!-- Generator: Adobe Illustrator 24.0.1, SVG Export Plug-In . SVG Version: 6.00 Build 0)  -->
<svg version="1.2" baseProfile="tiny" id="Warstwa_1"
	 xmlns="http://www.w3.org/2000/svg" xmlns:xlink="http://www.w3.org/1999/xlink" x="0px" y="0px" viewBox="0 0 560.1 221.3"
	 xml:space="preserve">
<path d="M73.1,102.7c-0.5,2-1.1,4-1.5,6.1c-2,12.8-4.1,25.7-5.9,38.5c-0.2,1.6,1.1,3.3,1.6,5c0.3,1.2,0.8,2.5,0.7,3.7
	c-0.9,7.4-2,14.8-2.9,22.3c-0.4,3.8-2.1,5.5-6.1,5.4c-9.5-0.2-19-0.2-28.5-0.1c-3.8,0.1-5.6-0.8-5.9-5.2c-0.4-6.4-1.9-12.7-2.8-19.1
	c-0.2-1.6-0.7-3.6,0-4.9c5-9.5-0.3-18.6-1.1-27.8c-0.3-3.3-0.6-6.6-0.9-9.9c-0.4-4.2-1.3-7.9-5.5-10.5c-3.2-2-6.8-5.3-3-9.7
	c4.3-5,3.3-10.5,2.3-16c-1.5-8.5-3.2-17-4.7-25.5c-1.3-6.9-1.2-6.9-8.9-7.8C0.1,38,0,28.6,0.2,19.2c0-0.8,1.9-2.3,3-2.3
	c10.3-0.2,20.7-0.2,31,0.1c1.2,0,3.1,2.2,3.3,3.6c1.6,11.9,3,23.8,4.4,35.7c1.9,16.7,3.6,33.4,5.4,50.1c0.4,0.1,0.8,0.1,1.2,0.2
	c0.8-4.3,1.8-8.6,2.4-13c1.9-13.7,3.7-27.4,5.2-41.1c0.2-1.6-1.3-3.4-2-5.1c-0.4-1-0.8-2.1-0.7-3.1c0.7-7.8,1.6-15.6,2.2-23.4
	C56,18,57,16.7,60,16.8c9,0.1,18,0.1,27,0c3.3-0.1,4.4,1.3,4.6,4.4c0.3,6.3,1.1,12.6,1.3,18.9c0.1,2.9,2,6.6-2.4,8.5
	c-0.4,0.2-0.3,1.9-0.2,2.9c2.6,18.9,5.3,37.8,8.9,56.8c1.1-8.4,2.2-16.8,3.2-25.2c2.3-20.3,4.6-40.7,6.6-61.1c0.4-4.1,2-5.4,6-5.3
	c7.3,0.3,14.7,0.2,22,0c3-0.1,5,0.9,5.5,3.7c1.4,8.8,2.4,17.7,3.8,27.3c-7.8-1.8-8,3-8.7,8.1c-1.2,8.4-2.7,16.8-4.3,25.1
	c-1.2,6-0.6,11.5,3.9,16.1c2.3,2.4,2.3,4.5-0.7,6.6c-5.7,4.1-8.4,9.8-9.1,16.8c-1,9.1-3.1,18.1-4.1,27.2c-0.5,4.3,1.1,8.9,0.7,13.2
	c-0.5,6.3-1.9,12.5-2.7,18.8c-0.4,3-2,3.9-4.7,3.9c-9.5,0-19,0-28.5,0c-2.5,0-3.9-0.8-4.3-3.6c-1.3-8.2-2.8-16.4-4.3-24.6
	c-0.1-0.3-0.3-0.8-0.1-1c5.2-7.7,0.3-15.2-0.4-22.7c-1-9.7-3-19.3-4.5-28.9C73.9,102.7,73.5,102.7,73.1,102.7z"/>
<path d="M250.1,77.1c0.1-1.7,0.2-3.5,0.2-5.2c0-16.5,0.1-33-0.1-49.5c0-3.9,0.7-5.7,5.2-5.6c8.1,0.3,16.3,0.1,24.5-0.1
	c3.2-0.1,4.4,0.9,4.4,4.3c-0.1,52.8-0.1,105.6,0,158.4c0,3.1-1.2,4.1-4.1,4.1c-8.7-0.1-17.3-0.1-26,0c-3.1,0.1-4.5-1.5-5.2-4.2
	c-2.2-8.7-4.5-17.4-6.7-26.1c-2.8-10.7-5.5-21.5-9.4-32.3c-0.1,1.6-0.4,3.2-0.4,4.8c0,17.2-0.1,34.3,0.1,51.5
	c0.1,4.8-1.5,6.6-6.3,6.3c-6.6-0.3-13.3-0.2-20-0.1c-3.3,0.1-4.7-0.9-4.7-4.6c0.1-52.5,0.1-105,0-157.5c0-3.7,1.2-5,4.9-4.9
	c7.5,0.2,15,0.2,22.5,0c3.1-0.1,4.6,1.2,5.3,4c4.3,17.4,8.6,34.8,12.9,52.1c0.4,1.5,0.9,2.9,1.4,4.3
	C249.2,77.2,249.6,77.1,250.1,77.1z"/>
<path d="M367.2,47.8c-10.8,0-20.7,0.2-30.7-0.1c-4.3-0.1-5.5,1.4-5.4,5.4c0.2,9.7,0.2,19.3,0,29c-0.1,4,1.1,5.8,5.4,5.5
	c5.8-0.3,11.7,0,17.5-0.1c3.1-0.1,4.7,1.2,6.7,3.8c6.1,8.3,2.2,15.7-1.2,23.2c-0.6,1.2-3.3,2-5.1,2.1c-6.3,0.2-12.7,0.2-19,0.1
	c-2.9,0-4.2,1.1-4.2,4.1c0.1,9.2,0.1,18.3,0,27.5c0,3.2,1.3,4.5,4.5,4.4c7.8-0.1,15.7-0.1,23.5,0c2.1,0,4.3,0.3,7,0.4
	c-1.8,9.6-3.4,18.9-5.5,28c-0.3,1.2-3.4,2.3-5.1,2.4c-15.3,0.1-30.6,0-46-0.1c-0.3,0-0.7,0-1,0c-11.4-0.1-11.3-0.1-11.3-11.8
	c0-48.3,0-96.6,0-144.9c0-1.8,0.1-3.7,0-5.5c-0.1-3.1,1.1-4.4,4.4-4.4c18.7,0.1,37.3,0,56,0.2c1.7,0,4.7,1.9,5,3.4
	C364.4,29.1,365.6,38,367.2,47.8z"/>
<path d="M189.2,100c0,26-0.1,51.9,0.1,77.9c0,4.4-1.4,5.9-5.7,5.8c-7.7-0.2-15.3-0.2-23,0c-3.6,0.1-4.9-1.3-4.9-5
	c0.1-51.9,0.1-103.9,0-155.8c0-4.5,1.4-6.3,6.1-6.1c7.1,0.3,14.3,0.3,21.5,0c4.6-0.2,6.1,1.2,6,5.9C189.1,48.4,189.2,74.2,189.2,100
	z"/>
<g>
	<path d="M279.6,4.5c-91.3,0-182.6,0-273.9-0.1C3.7,4.5,1.9,3.3,0,2.7c1.9-0.9,3.8-2.4,5.7-2.4C92.2,0.1,178.6,0.1,265,0.1
		c83.8,0,167.6,0,251.4,0c12.8,0,25.5,0,38.3,0c0.7,0,1.4-0.3,2,0.1c0.9,0.5,1.7,1.5,2.6,2.2c-0.9,0.7-1.7,2-2.6,2
		c-7.1,0.2-14.3,0.1-21.4,0.1c-8,0-16,0-24.1,0C433.9,4.5,356.8,4.5,279.6,4.5z"/>
	<path d="M553.2,205.1c-2.4,6-5.6,8.6-10.9,8.6c-152.4-0.2-304.7-0.2-457.1-0.2c-19.3,0-38.6,0-57.8,0c-2.9,0-7.3-5.1-7.2-8.3
		c0-3,4.6-8.5,7.1-8.5c16.6,0,33.1,0,49.7,0c155.3,0,310.7,0.1,466-0.2C548.3,196.4,551,199.7,553.2,205.1z"/>
	<path d="M373.2,47.6c2.1-7.7,3.7-14.8,6-21.7c2.9-9.1,3.1-9.1,12.8-9.1c15.3,0,30.6,0.1,46-0.1c3.8,0,5.6,1,6.5,5
		c1.4,6.6,3.6,13.1,5.4,19.7c0.5,1.9,0.6,3.8,1,6.3c-5.7,0-10.8,0.4-15.9-0.1c-4.9-0.4-5.9,1.5-5.9,5.9c0.1,34.5,0.1,69,0.1,103.4
		c0,7-0.2,14,0.1,21c0.2,4-1.1,5.7-5.3,5.6c-7.8-0.2-15.7-0.2-23.5,0c-4.3,0.1-5.4-1.7-5.4-5.7c0.1-40.5,0.1-80.9,0.1-121.4
		c0-8.7,0.1-8.7-8.3-8.9C382.8,47.6,378.6,47.6,373.2,47.6z"/>
	<path d="M286.4,221.3c-85.5,0-171.1,0-256.6-0.1c-1.8,0-3.5-1.1-5.3-1.7c1.8-0.9,3.6-2.4,5.4-2.4c81-0.1,161.9-0.2,242.9-0.2
		c78.5,0,157,0,235.4,0c12,0,23.9,0,35.9,0c0.6,0,1.3-0.3,1.8,0.1c0.9,0.5,1.6,1.5,2.4,2.2c-0.8,0.7-1.6,2-2.5,2
		c-6.7,0.2-13.3,0.1-20,0.1c-7.5,0-15,0-22.6,0C431,221.3,358.7,221.3,286.4,221.3z"/>
	<path d="M558.2,96.5c-10-7-7.2-19-7.2-20.3c0.2-6.6,0.3-13.3,0.3-19.9c0-7.9,0-7.9,7.2-10c-0.1-1.6-0.1-3.2-0.4-4.9
		c-1.3-7.3-2.4-14.7-4.1-21.9c-0.3-1.3-3-2.8-4.6-2.9c-9-0.3-18,0-27-0.2c-3.4-0.1-4.8,1-4.8,4.5c0.1,14.3,0,28.6,0.2,43
		c0.1,3.6-0.3,33.7-0.2,37.7c0.1,14,0,28,0,42c0,10.5,0.1,10.5-10.3,10.5c-7.5,0-7.9-0.3-7.9-7.8c0-20.1,0.1-40.2,0-60.3
		c-0.1-11.3-0.6-22.6-0.6-33.9c0-10.3,0.4-20.6,0.7-30.9c0.1-3.3-1.1-4.8-4.6-4.7c-9.2,0.2-18.3,0.2-27.5,0c-3.2-0.1-4.5,1.4-5,4.2
		c-1.5,8.7-2.9,17.4-4.4,26.3c7.5,1,7.5,1,7.5,8.1c0,8.2-0.3,16.3,0.1,24.5c0.3,6.5-0.3,12.6-5,17.6c-2.4,2.5-1.8,4.7,0.4,6.9
		c4,4.1,4.8,9.1,4.7,14.6c-0.3,13.8-0.4,27.7,0.1,41.5c0.2,5.3,1.4,11.1,4,15.6c3.9,6.7,11.5,7.3,18.6,7.4c13.3,0.2,26.7,0.1,40,0.1
		c3,0,6-0.4,8.9-1c8.5-1.7,13.9-8.6,14.1-18.6c0.3-14,0.4-28,0-42c-0.2-7.3,0.6-13.8,6.6-18.7C558.8,102.4,562.2,99.5,558.2,96.5z"
		/>
</g>
</svg>
